<?xml version="1.0" encoding="utf-8"?>
<!-- Generator: Adobe Illustrator 19.1.0, SVG Export Plug-In . SVG Version: 6.00 Build 0)  -->
<svg version="1.1" id="Rackspace" xmlns="http://www.w3.org/2000/svg" xmlns:xlink="http://www.w3.org/1999/xlink" x="0px" y="0px"
	 viewBox="-311 326 400 117" style="enable-background:new -311 326 400 117;" xml:space="preserve">
<style type="text/css">
	.st0{fill:#4C4C4C;}
</style>
<path class="st0" d="M14.5,385.9c0-13.6,10.6-23.8,24.6-23.9c2.8,0,5.7,0.5,7.7,1.3l0,0l-1.7,9.1H45c-1.7-1-3.7-1.4-6.1-1.4
	c-8,0-12.7,6.9-12.7,13.6c0,5.7,3.8,7.7,7.3,7.7c3.2,0,5.8-0.7,9.3-2.4l0.1-0.1l-1.8,9.4l0,0c-2.6,1.2-6.6,2-10.7,2
	C20.7,401.3,14.5,395.3,14.5,385.9z M-2.1,400.5l0.4-1.8c0.3-1.5,1.5-3.6,2-4.3l0.1-0.1c0.2-0.4-0.1-0.8-0.4-0.9
	c-0.4-0.1-0.8,0-1,0.3v0.2c-0.2,0.8-0.6,2.7-2.4,4.2c-2.2,2-5.2,3.2-8.6,3.2c-7.4,0-10.8-6.6-10.8-13.2c0-7.5,2.9-14.9,7.9-19.9
	c4.1-4.1,9.5-6.3,15.4-6.3c4.5,0,7.9,1.3,10,3.9c3.1,3.8,2.9,9.4,2.1,13.6l-4,21.1L-2.1,400.5L-2.1,400.5z M-1.7,370.5
	c-1.5,0-3.1,0.8-4.6,2.2c-3,3-5.3,8.7-5.2,13.2c0,3.9,1.5,6.4,4,6.4c4.1,0,7.6-4.3,8.8-10.5c0.3-1.4,0.5-2.8,0.7-4.1
	c0.2-1.2,0.3-2.4,0.3-3.1C2.2,371.9,0.8,370.5-1.7,370.5z M53.8,384.9l0.1,0.1c1,0.9,1.7,2.3,1.8,2.7c0.2,0.7,0.5,1.4,0.9,2
	c1.5,1.8,4,2.8,7.2,2.8c4.6,0,8.7-1.1,13-3.6l0.1-0.1l-1.8,9.4c-5.4,2.7-11.6,3-14,3c-10.4,0-16.4-5.8-16.4-15.9
	c0-5.8,2.1-11.7,5.9-16c4.1-4.8,9.8-7.4,16.1-7.4c7.9,0,13.1,4.6,13.1,11.4c0,3.1-1,5.7-3,7.7c-3.4,3.3-9.5,5-18.7,5
	c-2.2,0-2.7-1.1-3.1-1.9l-0.1-0.1c-0.2-0.3-0.7-0.2-1-0.1C53.7,384.2,53.6,384.6,53.8,384.9z M68.4,375.6c0.6-0.6,0.9-1.4,0.9-2.3
	c0-1.9-1.6-3.2-4-3.2c-3.7,0-6.4,2.3-7.8,5.1c-1,2-1.4,2.2-2.3,2.8l-0.1,0.1c-0.3,0.2-0.2,0.7,0,1c0.2,0.2,0.6,0.4,0.9,0.1l0.1-0.1
	c0.8-0.9,1-1.3,3.9-1.4C64.4,377.6,67.1,376.9,68.4,375.6z M-44.6,365.4c2.5-2.2,5.7-3.4,8.9-3.4c7.4,0,12.2,5.6,12.2,14.4
	c0,9.2-4.4,18.6-12.3,22.8c-6.2,3.3-11.8,2.6-14.5,0.4c-0.7-0.5-0.8-1.9-0.9-2.4v-0.1c-0.1-0.4-0.6-0.5-0.9-0.4
	c-0.3,0.1-0.6,0.5-0.5,0.8l0.1,0.1c0.5,0.9,0.9,1.6,0.8,2.4l-2.4,12.7h-11.2l9.5-50.1h9.9l-0.3,1.8c-0.5,2.7-1.3,3.8-1.9,4.4
	l-0.1,0.1c-0.2,0.3,0,0.7,0.3,0.9c0.3,0.1,0.8,0.2,1-0.2v-0.1C-46.8,368.6-46.2,366.7-44.6,365.4z M-48.8,383
	c-0.5,2.5-1.8,9.9,3.4,9.9c5.9,0,10.2-8.4,10.2-15.7c0-1.8-0.4-6.1-4.5-6.1C-43.9,371.1-47.4,375.8-48.8,383z M-174.8,400.5l0.4-1.8
	c0.3-1.5,1.5-3.6,2-4.3l0.1-0.1c0.2-0.4-0.1-0.8-0.4-0.9c-0.4-0.1-0.8,0-0.9,0.3l-0.1,0.2c-0.2,0.8-0.6,2.7-2.4,4.2
	c-2.2,2-5.2,3.2-8.6,3.2c-7.4,0-10.8-6.6-10.8-13.2c0-7.5,2.9-14.9,7.9-19.9c4.1-4.1,9.5-6.3,15.4-6.3c4.5,0,7.9,1.3,10,3.9
	c3.1,3.8,2.9,9.4,2.1,13.6l-4,21.1L-174.8,400.5L-174.8,400.5z M-174.4,370.5c-1.5,0-3.1,0.8-4.6,2.2c-3,3-5.3,8.7-5.2,13.2
	c0,3.9,1.5,6.4,4,6.4c4.1,0,7.6-4.3,8.8-10.5c0.3-1.4,0.5-2.8,0.7-4.1c0.2-1.2,0.3-2.4,0.3-3.1
	C-170.5,371.9-171.9,370.5-174.4,370.5z M-158.3,385.9c0-13.6,10.6-23.8,24.6-23.9c2.8,0,5.7,0.5,7.7,1.3c0,0,0,0,0.1,0l-1.7,9.1
	h-0.1c-1.7-1-3.7-1.4-6.1-1.4c-8,0-12.7,6.9-12.7,13.6c0,5.7,3.8,7.7,7.3,7.7c3.2,0,5.8-0.7,9.3-2.4l0.1-0.1l-1.8,9.4l0,0
	c-2.6,1.2-6.6,2-10.7,2C-152,401.3-158.3,395.3-158.3,385.9z M-88.1,375c0-7.8,6.6-13,16.6-13.1c4.6,0,8,1,9.6,1.9l0,0l-1.6,8.5
	h-0.1c-1.9-1-5.1-2.1-8.5-2.1c-2.9,0-4.8,1.2-4.8,3.2c0,1.5,1.4,2.8,4.5,4.3c4,2,8.5,5,8.5,10.3c0,3.5-1.2,6.4-3.4,8.7
	c-3,3-8,4.7-13.9,4.6c-4.6-0.1-9.2-1.3-11.5-2.9l0,0l1.6-8.5h0.1c2.5,1.6,7.3,3.2,10.9,3.2c2.8,0,4.6-1.3,4.6-3.3
	c0-1.9-1.3-3.2-4.7-4.8C-85.5,382.3-88.1,379-88.1,375z M-202.8,366.3c2.6-2.9,5.7-4.4,9.1-4.4c0.7,0,1.5,0.1,2.1,0.2l-2.2,11
	c-0.4-0.1-1-0.2-1.8-0.2c-7.6,0-10.6,7.4-11.7,13.6l-2.6,14.4h-11.2l7.3-38.2h9.8l-0.5,2.6c-0.5,2.4-1.2,3.9-1.7,4.5l-0.1,0.1
	c-0.2,0.4,0.1,0.7,0.4,0.9c0.3,0.1,0.8,0.1,0.9-0.3l0.1-0.1C-204.7,369.7-204.3,368-202.8,366.3z M84.5,392.3
	c-2.4,0-4.4,1.9-4.6,4.3c-0.2,2.3,1.5,4.1,3.8,4.1c2.4,0,4.5-1.9,4.7-4.3C88.5,394.2,86.8,392.3,84.5,392.3z M83.7,401.4
	c-2.7,0-4.7-2.2-4.4-4.9c0.2-2.7,2.6-4.9,5.3-4.9s4.7,2.2,4.4,4.9C88.7,399.2,86.4,401.4,83.7,401.4z M85.7,399.4h-0.8l-0.7-2.2
	h-0.5l0,0h-0.5l-0.4,2.2H82l1.1-5.7h1.2c0.3,0,0.5,0,0.7,0s0.4,0.1,0.5,0.1c0.6,0.2,1,0.7,1,1.3c0,0.1,0,0.2,0,0.3
	c-0.1,0.8-0.6,1.4-1.5,1.6L85.7,399.4z M84.8,394.4c-0.1,0-1.2,0-1.2,0l-0.4,2.2c0,0,1,0,1.2,0s0.3,0,0.4-0.1c0.5-0.1,0.9-0.5,1-1
	s-0.1-0.8-0.6-1C85.1,394.4,85,394.4,84.8,394.4z M-107.7,349.5l-5.8,30.4l14.9-17.2h12.2l-15.4,17.4l9.4,20.4h-12l-9.1-20.2
	l-3.8,20.2h-11.2l9.7-51L-107.7,349.5L-107.7,349.5z M-268,338.9c-16.5,20.3-23.5,46.6-22.6,70c-9.8-3.9-16.9-13.3-17.7-25.2v-0.1
	c-1.2-21.2,15.7-42.8,37.7-48.4c8.6-2.2,16.7-1.6,23.4,1.2c-1.4,4-3.8,8.6-6.1,12c-4.9,7.2-11.9,11.8-15.7,10.2
	c-3.8-1.6-2.8-8.8,2-16.1c1.1-1.7,2.4-3.2,3.7-4.5C-264.8,338.2-266.4,338.5-268,338.9z M-266.4,348.4c-1.6,3.3-1,6.1,1.4,6.1
	s5.5-2.6,7.1-6c1.6-3.3,1-6.1-1.4-6.1C-261.6,342.4-264.8,345-266.4,348.4z M-261.9,326c18.5-1.1,33.1,10.9,34.2,29.5
	c1.2,21.1-15.6,42.8-37.6,48.4c-7.6,1.9-14.7,1.7-20.9-0.2c-0.5-8.3,1.2-17,4.8-23.1c5.8-9.9,14.6-9.1,19.7,1.9
	c1.9,4.1,3,9.1,3.3,14.2c1.8-0.9,3.5-2,5.1-3.1c-5.5-13.2-7.9-28.9,11.7-56.5c-5.7-4.5-14.4-6.8-25.3-5.3
	C-265.5,329.7-263.7,327.8-261.9,326z M-304.9,438.4L-304.9,438.4l0.4-2h-0.1c-0.7,0.3-1.3,0.4-2,0.4c-0.8,0-1.9-0.2-1.9-1.4
	c0-0.3,0-0.8,0-1l1.5-7.9h4.3l0.4-1.9h-4.3l0.8-4.2h-2.1l-0.8,4.2h-1.9l-0.4,1.9h1.9l-1.5,8c-0.1,0.5-0.1,1-0.1,1.5
	c0.1,1.7,1.5,2.8,3.6,2.8C-306.2,438.8-305.6,438.7-304.9,438.4z M-298.1,430.7c0.5-2.6,2.4-4.4,4.6-4.4c1.9,0,3.1,1.1,3.3,2.8
	c0,0.5,0,1.1-0.1,1.5l-1.5,7.9h2.1l1.4-7.7c0.2-0.9,0.2-1.6,0.2-2.1c-0.2-2.6-2.1-4.3-4.8-4.3c-2.2,0-3.5,1.2-4.5,2.4l1.5-7.8h-2.1
	l-3.7,19.6h2.2L-298.1,430.7z M-209.3,438.6l1.5-7.7v-0.1c0.1-0.8,0.3-1.7,0.2-2.4c-0.2-2.6-2-4.3-4.6-4.3c-2.1,0-3.8,1-5,2.8
	c-0.7-1.8-2.2-2.8-4.1-2.8c-1.8,0-2.9,0.9-3.9,2l0.3-1.7h-3.3l-2.7,14.2h3.3l1.5-8c0.4-2.1,1.7-3.5,3.4-3.5c1.4,0,2.3,0.8,2.4,2.2
	c0,0.4,0,0.9-0.1,1.4l-1.5,7.9h3.3l1.5-8c0.4-2.1,1.7-3.5,3.4-3.5c1.4,0,2.3,0.8,2.4,2.2c0,0.4,0,0.9-0.1,1.4l-1.5,7.9H-209.3
	L-209.3,438.6z M-178.6,438.6l1.4-7.7c0.1-0.8,0.3-1.7,0.2-2.5c-0.2-2.6-2-4.3-4.6-4.3c-1.8,0-3.1,1-4.1,2l0.3-1.7h-3.3l-2.7,14.2
	h3.4l1.5-8c0.4-2.1,1.8-3.5,3.5-3.5c1.5,0,2.5,0.8,2.6,2.2c0,0.4,0,1-0.1,1.4l-1.5,7.9H-178.6L-178.6,438.6z M-92.6,436.6l-1.9-2.2
	c-1.2,1.1-2.2,1.6-3.4,1.6c-1.9,0-3.4-1.5-3.6-3.5c-0.1-1.5,0.4-3.1,1.4-4.2c0.8-0.9,1.9-1.4,2.9-1.4c1.9,0,2.8,1,3.6,2.1l2.4-1.8
	c-0.9-1.5-2.8-3.2-6-3.2c-2.1,0-4.2,0.9-5.7,2.5s-2.2,3.7-2,6c0.3,3.7,3.2,6.3,7,6.3C-95.2,438.9-93.7,437.7-92.6,436.6z
	 M-87.3,438.6l3.7-19.6h-3.3l-3.7,19.6H-87.3z M-58.2,436.9l-0.3,1.7h3.3l2.7-14.2h-3.3l-1.5,8c-0.4,2.1-1.8,3.5-3.5,3.5
	c-1.5,0-2.4-0.8-2.6-2.2c0-0.4,0-1,0.1-1.4l1.5-7.9h-3.3l-1.5,7.7c-0.1,0.8-0.3,1.7-0.2,2.5c0.2,2.6,2,4.3,4.7,4.3
	C-60.4,438.9-59.1,437.8-58.2,436.9z M-16.3,436.6l-1.4-1.4c-1.3,1.2-2.5,1.8-3.9,1.8c-2,0-4.2-1.4-4.4-4.2
	c-0.1-1.8,0.5-3.5,1.6-4.7c1-1.1,2.3-1.7,3.7-1.7c2.2,0,3.4,1.3,4.1,2.4l1.7-1.1c-0.7-1.2-2.4-3.2-5.8-3.2c-2,0-4,0.9-5.5,2.4
	c-1.5,1.6-2.2,3.8-2,6c0.3,4,3.6,6.1,6.6,6.1C-19.6,438.9-17.9,438.1-16.3,436.6z M22,438.6l1.5-7.7c0-0.1,0-0.3,0.1-0.4
	c0.1-0.6,0.2-1.2,0.1-1.7c-0.2-2.6-2-4.3-4.6-4.3c-2.3,0-4.1,1-5.3,3c-0.6-1.9-2.2-3-4.2-3c-1.9,0-3.1,0.9-4.3,2.4l0.4-2.1H3.6
	L1,438.7h2.1l1.5-7.8c0.5-2.5,2.4-4.4,4.4-4.4c1.8,0,2.9,1.1,3,2.8c0,0.5,0,1.1-0.1,1.5l-1.5,7.9h2.2l1.5-7.8
	c0.5-2.5,2.4-4.4,4.4-4.4c1.8,0,2.9,1.1,3,2.8c0,0.4,0,1.1-0.1,1.5l-1.5,7.9L22,438.6L22,438.6z M68.3,438.6l1.4-7.7
	c0.2-0.9,0.2-1.6,0.2-2.1c-0.2-2.6-2.1-4.3-4.8-4.3c-2.2,0-3.5,1.2-4.5,2.4l0.4-2.1h-2.1l-2.6,13.9h2.1l1.5-7.8
	c0.5-2.6,2.4-4.4,4.6-4.4c1.9,0,3.1,1.1,3.3,2.8c0,0.5,0,1.1-0.1,1.5l-1.5,7.9L68.3,438.6L68.3,438.6z M77.4,439l8.4-14.3h-2.4
	l-6.5,11.4l-2.8-11.4h-2.2l3.6,13.8c-1.1,1.8-2.1,2.5-3.4,2.5c-0.7,0-1.6-0.3-2.1-0.7l-1.1,1.6c1,0.7,2,1,3.1,1
	C74.2,442.9,75.8,441.8,77.4,439z M-279.3,438.9c-3.7,0-6.3-2.4-6.6-5.9c-0.2-2.3,0.6-4.6,2.1-6.2c1.4-1.5,3.2-2.3,5.3-2.3
	c3.7,0,5.6,2.7,5.8,5.3c0.1,0.9,0,1.8-0.3,2.6l0,0h-10.8c0,0.2,0,0.3,0,0.5c0.2,2.5,1.9,4.1,4.4,4.1c1.8,0,3-0.7,4.1-1.6l1.2,1.4
	C-275.1,437.8-276.7,438.9-279.3,438.9z M-283.7,430.7h8.8c0.1-0.3,0.1-0.6,0-1c-0.1-1.7-1.2-3.5-3.7-3.5c-1.4,0-2.7,0.6-3.7,1.6
	C-282.9,428.6-283.4,429.6-283.7,430.7z M-171,438.9c-2.5,0-4.4-1.6-4.6-3.9c-0.1-1.3,0.3-2.5,1.1-3.4c1.1-1.1,2.7-1.7,4.7-1.7
	c1.4,0,2.8,0.2,4.4,0.7l0.1-0.2c0.1-0.4,0.1-0.7,0.1-1.2c-0.1-1.4-1.2-2.1-3.2-2.1c-1.3,0-2.5,0.3-3.8,0.8l-0.8-2.7
	c1.6-0.6,3.2-0.9,5-0.9c3.7,0,5.8,1.6,6,4.4c0.1,0.7,0,1.3-0.1,2.1l-1.5,7.9h-3.2l0.3-1.7C-167.8,438.2-169.2,438.9-171,438.9z
	 M-169.1,432c-1.1,0-2,0.3-2.6,0.9c-0.4,0.4-0.6,1-0.5,1.7c0.1,1.1,1,1.9,2.4,1.9c1.9,0,3.6-1.4,4-3.3l0.1-0.6
	C-166.4,432.3-167.6,432-169.1,432z M-154,442.9c-2.7,0-5.5-0.8-7.4-2.2l1.7-2.3c1.6,1.1,3.5,1.8,5.4,1.8c1.4,0,2.6-0.4,3.3-1.2
	c0.6-0.6,1-1.5,1.2-2.8l0.1-0.7c-1.5,1.4-2.8,2-4.6,2c-2.7,0-5.6-1.8-5.9-5.1c-0.2-2.2,0.5-4.3,2-5.9c1.4-1.5,3.2-2.3,5.2-2.3
	c2.7,0,4,1.4,4.8,2.7l0.4-2.4h3.3l-2.2,11.7c-0.5,2.5-1,3.7-2,4.8C-149.8,442.3-151.6,442.9-154,442.9z M-152.4,426.9
	c-1.2,0-2.3,0.5-3.1,1.4c-0.9,0.9-1.3,2.1-1.2,3.4c0.1,1.8,1.5,3,3.4,3c1.3,0,2.5-0.5,3.3-1.5c0.9-0.9,1.3-2,1.2-3.2
	C-149,428.2-150.5,426.9-152.4,426.9z M-136.4,438.9c-4,0-6.6-2.4-6.9-6.2c-0.2-2.2,0.6-4.5,2.1-6.2c1.4-1.6,3.4-2.4,5.6-2.4
	c1.7,0,3.2,0.6,4.3,1.6c1,1,1.6,2.4,1.8,3.9c0.1,1-0.1,2-0.4,3c0,0,0,0-0.1,0h-10.2c0.2,2.2,1.6,3.5,3.9,3.5c1.3,0,2.3-0.4,3.5-1.4
	l1.8,2.1C-132.5,438.2-134.3,438.9-136.4,438.9z M-140,430.4h7.2c0.1-0.2,0.1-0.6,0.1-0.9c-0.1-1.7-1.2-2.7-3-2.7
	c-1.2,0-2.3,0.5-3.1,1.4C-139.4,428.8-139.8,429.6-140,430.4z M-76.1,438.9c-2,0-3.7-0.6-5-1.8c-1.3-1.2-2-2.8-2.2-4.6
	c-0.2-2.1,0.6-4.3,2-5.8c1.4-1.6,3.4-2.5,5.6-2.5c2,0,3.7,0.6,5,1.8s2,2.8,2.2,4.7c0.2,2.1-0.6,4.3-2,5.8
	C-72,438-74,438.9-76.1,438.9z M-75.7,427c-1.1,0-2.1,0.5-3,1.3c-0.9,1-1.5,2.6-1.4,4c0.2,2.3,1.6,3.7,3.8,3.7c1.1,0,2.2-0.5,3-1.3
	c0.9-1,1.5-2.6,1.4-4C-72,428.4-73.5,427-75.7,427z M-45.7,438.9c-1.6,0-3-0.6-4.1-1.6c-1.1-1.1-1.8-2.6-1.9-4.4
	c-0.2-2.5,0.5-4.7,2.1-6.4c1.4-1.5,3.2-2.3,5.1-2.3c2.1,0,3.8,0.9,4.9,2.7l1.5-7.8h3.3l-3.7,19.6h-3.3l0.3-1.8
	C-42.7,438.2-44.1,438.9-45.7,438.9z M-43.9,427c-1.1,0-2.2,0.5-3,1.3c-1,1.1-1.5,2.6-1.4,4.2c0.2,2.1,1.6,3.4,3.6,3.4
	c1.2,0,2.3-0.5,3.1-1.5c1-1.1,1.5-2.6,1.4-4.1C-40.2,428.4-41.8,427-43.9,427z M-7.5,438.9c-3.7,0-6.5-2.6-6.8-6.2
	c-0.2-2.1,0.6-4.3,2-5.8c1.5-1.6,3.4-2.4,5.5-2.4c3.7,0,6.5,2.6,6.8,6.2c0.2,2.1-0.6,4.2-2,5.9C-3.4,438-5.4,438.9-7.5,438.9z
	 M-6.8,426.3c-1.4,0-2.7,0.6-3.8,1.7c-1.1,1.2-1.7,2.9-1.6,4.6c0.2,2.7,2,4.4,4.6,4.4c1.4,0,2.7-0.6,3.8-1.7
	c1.1-1.2,1.7-2.9,1.6-4.6C-2.4,428-4.1,426.3-6.8,426.3z M24.1,442.8l3.4-18.1h2.1l-0.4,2.2c1.4-1.7,3-2.5,4.9-2.5
	c3.2,0,5.7,2.4,6,5.9c0.2,2.4-0.6,4.7-2.1,6.4c-1.3,1.5-3.1,2.3-5,2.3c-3,0-4.6-1.8-5.4-3.3l-1.4,7.3L24.1,442.8L24.1,442.8z
	 M33.7,426.3c-1.4,0-2.9,0.7-3.9,1.8c-1.2,1.3-1.8,3-1.7,4.6c0.2,2.5,2.1,4.2,4.5,4.2c1.4,0,2.7-0.6,3.6-1.6
	c1.1-1.3,1.7-3.1,1.6-4.9C37.7,428,36,426.3,33.7,426.3z M52.7,438.6h-2.1l0.4-2c-1.3,1.5-2.9,2.3-4.9,2.3c-2.1,0-4.5-1.2-4.7-3.9
	c-0.1-1.3,0.3-2.4,1.1-3.3c1-1.1,2.7-1.7,4.7-1.7c1.5,0,3.1,0.2,4.9,0.7v-0.3c0.1-0.4,0.1-0.9,0.1-1.3c-0.1-1.8-1.5-2.8-3.9-2.8
	c-1.6,0-2.8,0.4-3.8,0.7l-0.5-1.8c1.5-0.6,2.9-0.8,4.5-0.8c3.5,0,5.6,1.6,5.8,4.3c0,0.6,0,1.2-0.1,1.9L52.7,438.6z M47.4,431.6
	c-1.4,0-2.5,0.4-3.1,1.1c-0.5,0.5-0.8,1.2-0.7,2c0.1,1.5,1.3,2.4,3.1,2.4c2.4,0,4.6-1.8,5-4.1l0.2-0.9
	C50.5,431.8,48.9,431.6,47.4,431.6z M-254.9,438.6l0.9-4.7h-4.7l-0.9,4.7h-2.1l0.9-4.7h-3.5l0.4-2.1h3.5l1-5.5h-3.5l0.4-2.1h3.5
	l0.9-4.7h2.1l-0.9,4.7h4.7l0.9-4.7h2.1l-0.9,4.7h3.4l-0.4,2.1h-3.4l-1,5.5h3.4l-0.4,2.1h-3.4l-0.9,4.7H-254.9z M-258.3,431.8h4.7
	l1-5.5h-4.7L-258.3,431.8z M-122.3,438.9c-1.6,0-3-0.6-4.1-1.6c-1.1-1.1-1.8-2.6-1.9-4.4c-0.2-2.5,0.6-4.7,2.1-6.4
	c1.4-1.5,3.2-2.3,5.1-2.3c2.1,0,3.8,0.9,4.9,2.7l1.5-7.8h3.3l-3.6,19.5h-3.3l0.3-1.8C-119.3,438.2-120.7,438.9-122.3,438.9z
	 M-120.5,427c-1.1,0-2.2,0.5-3,1.3c-1,1.1-1.5,2.6-1.4,4.2c0.2,2.1,1.6,3.4,3.6,3.4c1.2,0,2.3-0.5,3.1-1.5c1-1.1,1.5-2.6,1.4-4.1
	C-116.8,428.4-118.4,427-120.5,427z M-241.5,438.6l3.7-19.6h-1.7l-4.9,1.6l0.2,1.9l3.7-1.1l-3.2,17.1L-241.5,438.6L-241.5,438.6z
	 M-201.6,438.9c-2.5,0-4.4-1.6-4.6-3.9c-0.1-1.3,0.3-2.5,1.1-3.4c1.1-1.1,2.7-1.7,4.7-1.7c1.4,0,2.8,0.2,4.4,0.7l0.1-0.2
	c0.1-0.4,0.1-0.7,0.1-1.2c-0.1-1.4-1.2-2.1-3.2-2.1c-1.3,0-2.5,0.3-3.8,0.8l-0.8-2.7c1.6-0.6,3.2-0.9,5-0.9c3.7,0,5.8,1.6,6,4.4
	c0.1,0.7,0,1.3-0.1,2.1l-1.5,7.9h-3.3l0.3-1.7C-198.4,438.2-199.9,438.9-201.6,438.9z M-199.8,432c-1.1,0-2,0.3-2.6,0.9
	c-0.4,0.4-0.6,1-0.5,1.7c0.1,1.1,1,1.9,2.4,1.9c1.9,0,3.7-1.4,4-3.3l0.1-0.6C-197,432.3-198.3,432-199.8,432z"/>
</svg>
