<?xml version="1.0" encoding="utf-8"?>
<!-- Generator: Adobe Illustrator 19.1.0, SVG Export Plug-In . SVG Version: 6.00 Build 0)  -->
<svg version="1.1" xmlns="http://www.w3.org/2000/svg" xmlns:xlink="http://www.w3.org/1999/xlink" x="0px" y="0px"
	 viewBox="0 0 320 320" style="enable-background:new 0 0 320 320;" xml:space="preserve">
<style type="text/css">
	.st0{fill:#E7E7E7;}
	.st1{fill:url(#SVGID_1_);}
	.st2{fill:url(#SVGID_2_);}
	.st3{fill:url(#SVGID_3_);}
	.st4{fill:url(#SVGID_4_);}
	.st5{fill:#5D6D7E;}
	.st6{fill:#F5F7FA;}
	.st7{fill:url(#SVGID_5_);}
	.st8{fill:#9DAEBA;}
	.st9{fill:url(#SVGID_6_);}
	.st10{fill:#F2F2F2;}
	.st11{fill:#E8E8E8;}
	.st12{fill:#34495E;}
	.st13{fill:url(#SVGID_7_);}
	.st14{fill:url(#SVGID_8_);}
	.st15{fill:#B7DCD8;}
	.st16{fill:#966875;}
	.st17{fill:url(#SVGID_9_);}
	.st18{fill:#A57A89;}
	.st19{fill:url(#SVGID_10_);}
</style>
<g id="cube">
	<polygon class="st0" points="118.2,200.3 98.6,189 98.6,211.7 118.2,223 	"/>
	<polygon class="st0" points="98.6,235.9 118.2,247.3 118.2,224.6 98.6,213.3 	"/>
	<polygon class="st0" points="118.2,176.1 98.6,164.8 98.6,187.4 118.2,198.7 	"/>
	<polygon class="st0" points="77.6,223.8 97.2,235.1 97.2,212.5 77.6,201.1 	"/>
	<polygon class="st0" points="97.2,188.2 77.6,176.9 77.6,199.5 97.2,210.9 	"/>
	<linearGradient id="SVGID_1_" gradientUnits="userSpaceOnUse" x1="77.5934" y1="169.6021" x2="97.2098" y2="169.6021">
		<stop  offset="0" style="stop-color:#685A66"/>
		<stop  offset="0.4949" style="stop-color:#715A66"/>
		<stop  offset="1" style="stop-color:#785A66"/>
	</linearGradient>
	<polygon class="st1" points="97.2,163.9 77.6,152.6 77.6,175.3 97.2,186.6 	"/>
	<polygon class="st0" points="76.2,198.7 76.2,176.1 55.9,164.3 55.9,187 	"/>
	<polygon class="st0" points="76.2,151.8 55.9,140.1 55.9,162.7 76.2,174.5 	"/>
	<polygon class="st0" points="119.6,248.1 139.2,259.4 139.2,236.7 119.6,225.4 	"/>
	<polygon class="st0" points="76.2,200.3 55.9,188.6 55.9,211.3 76.2,223 	"/>
	<linearGradient id="SVGID_2_" gradientUnits="userSpaceOnUse" x1="119.6204" y1="218.1341" x2="139.2354" y2="218.1341">
		<stop  offset="0" style="stop-color:#685A66"/>
		<stop  offset="0.4949" style="stop-color:#715A66"/>
		<stop  offset="1" style="stop-color:#785A66"/>
	</linearGradient>
	<polygon class="st2" points="139.2,212.5 119.6,201.1 119.6,223.8 139.2,235.1 	"/>
	<linearGradient id="SVGID_3_" gradientUnits="userSpaceOnUse" x1="119.6204" y1="218.1341" x2="139.2354" y2="218.1341">
		<stop  offset="0" style="stop-color:#685A66"/>
		<stop  offset="0.4949" style="stop-color:#715A66"/>
		<stop  offset="1" style="stop-color:#785A66"/>
	</linearGradient>
	<polygon class="st3" points="139.2,212.5 119.6,201.1 119.6,223.8 139.2,235.1 	"/>
	<polygon class="st0" points="76.2,224.6 55.9,212.9 55.9,236.3 76.2,248.1 	"/>
	<polygon class="st0" points="118.2,248.9 98.6,237.5 98.6,261 118.2,272.3 	"/>
	<linearGradient id="SVGID_4_" gradientUnits="userSpaceOnUse" x1="77.5934" y1="242.7996" x2="97.2098" y2="242.7996">
		<stop  offset="0" style="stop-color:#685A66"/>
		<stop  offset="0.4949" style="stop-color:#715A66"/>
		<stop  offset="1" style="stop-color:#785A66"/>
	</linearGradient>
	<polygon class="st4" points="97.2,260.2 97.2,236.7 77.6,225.4 77.6,248.9 	"/>
	<polygon class="st0" points="139.2,261 119.6,249.7 119.6,273.1 139.2,284.5 	"/>
	<polygon class="st5" points="183.4,90.7 203,102.1 223.3,90.3 203.7,79 	"/>
	<polygon class="st6" points="244.3,102.5 224.7,91.1 204.4,102.9 224,114.2 	"/>
	<linearGradient id="SVGID_5_" gradientUnits="userSpaceOnUse" x1="119.6262" y1="78.411" x2="159.5476" y2="78.411">
		<stop  offset="0" style="stop-color:#685A66"/>
		<stop  offset="0.4949" style="stop-color:#715A66"/>
		<stop  offset="1" style="stop-color:#785A66"/>
	</linearGradient>
	<polygon class="st7" points="119.6,78.2 139.9,89.9 159.5,78.6 139.2,66.9 	"/>
	<polygon class="st8" points="222.6,115 203,103.7 183.4,115 203,126.3 	"/>
	<polygon class="st5" points="141.3,90.7 160.9,102.1 180.6,90.7 161,79.4 	"/>
	<polygon class="st8" points="162.4,78.6 182,89.9 202.3,78.2 182.7,66.9 	"/>
	<linearGradient id="SVGID_6_" gradientUnits="userSpaceOnUse" x1="120.3221" y1="127.1407" x2="159.5416" y2="127.1407">
		<stop  offset="0" style="stop-color:#685A66"/>
		<stop  offset="0.4949" style="stop-color:#715A66"/>
		<stop  offset="1" style="stop-color:#785A66"/>
	</linearGradient>
	<polygon class="st9" points="159.5,127.1 139.9,115.8 120.3,127.1 139.9,138.5 	"/>
	<polygon class="st10" points="159.5,102.9 139.9,91.6 120.3,102.9 139.9,114.2 	"/>
	<polygon class="st8" points="201.6,127.1 182,115.8 162.3,127.1 182,138.5 	"/>
	<polygon class="st5" points="99.3,115 118.9,126.3 138.5,115 118.9,103.7 	"/>
	<polygon class="st5" points="180.6,115 160.9,103.7 141.3,115 160.9,126.3 	"/>
	<polygon class="st8" points="118.9,102.1 138.5,90.7 118.2,79 98.6,90.3 	"/>
	<polygon class="st8" points="201.6,102.9 182,91.6 162.3,102.9 182,114.2 	"/>
	<polygon class="st8" points="161,77.8 181.3,66.1 161,54.3 140.6,66.1 	"/>
	<g>
		<polygon class="st0" points="76.2,150.2 76.2,126.7 55.9,115 55.9,138.5 		"/>
		<polygon class="st8" points="96.5,115 76.2,103.3 55.9,115 76.2,126.7 		"/>
	</g>
	<g>
		<polygon class="st0" points="97.2,138.9 77.6,127.5 77.6,151 97.2,162.3 		"/>
		<polygon class="st8" points="97.2,138.9 117.5,127.1 97.9,115.8 77.6,127.5 		"/>
	</g>
	<polygon class="st8" points="97.9,114.2 117.5,102.9 97.2,91.1 77.6,102.5 	"/>
	<polygon class="st8" points="223.3,164.8 203.7,176.1 203.7,198.7 223.3,187.4 	"/>
	<polygon class="st11" points="223.3,189 203.7,200.3 203.7,223 223.3,211.6 	"/>
	<polygon class="st8" points="203.7,247.2 223.3,235.9 223.3,213.3 203.7,224.6 	"/>
	<polygon class="st11" points="202.3,201.1 182.7,212.5 182.7,235.1 202.3,223.8 	"/>
	<polygon class="st12" points="245.7,223 266,211.2 266,188.6 245.7,200.3 	"/>
	<polygon class="st8" points="182.7,259.4 202.3,248 202.3,225.4 182.7,236.7 	"/>
	<polygon class="st8" points="244.3,176.9 224.7,188.2 224.7,210.8 244.3,199.5 	"/>
	<g>
		<polygon class="st0" points="161,249.3 140.6,237.5 140.6,260.2 161,271.9 		"/>
		<polygon class="st8" points="181.3,237.5 161,249.3 161,271.9 181.3,260.2 		"/>
	</g>
	<polygon class="st5" points="224.7,235.1 244.3,223.8 244.3,201.1 224.7,212.5 	"/>
	<polygon class="st8" points="244.3,152.6 224.7,164 224.7,186.6 244.3,175.3 	"/>
	<g>
		<polygon class="st8" points="245.7,103.3 225.4,115 245.7,126.7 266,115 		"/>
		<polygon class="st5" points="245.7,150.2 266,138.5 266,115 245.7,126.7 		"/>
	</g>
	<polygon class="st8" points="245.7,198.7 266,187 266,164.3 245.7,176.1 	"/>
	<polygon class="st5" points="245.7,174.5 266,162.7 266,140.1 245.7,151.8 	"/>
	<polygon class="st8" points="245.7,224.6 245.7,248.1 266,236.3 266,212.8 	"/>
	<g>
		<polygon class="st0" points="140.6,261.8 140.6,285.3 161,297 161,273.5 		"/>
		<polygon class="st8" points="181.3,261.8 161,273.5 161,297 181.3,285.3 		"/>
	</g>
	<g>
		<polygon class="st0" points="139.2,188.2 119.6,176.9 119.6,199.5 139.2,210.9 		"/>
	</g>
	<polygon class="st11" points="202.3,273.1 202.3,249.7 182.7,261 182.7,284.5 	"/>
	<g>
		<linearGradient id="SVGID_7_" gradientUnits="userSpaceOnUse" x1="204.3686" y1="127.3491" x2="244.296" y2="127.3491">
			<stop  offset="0" style="stop-color:#685A66"/>
			<stop  offset="0.4949" style="stop-color:#715A66"/>
			<stop  offset="1" style="stop-color:#785A66"/>
		</linearGradient>
		<polygon class="st13" points="224,115.8 204.4,127.1 224.7,138.9 244.3,127.6 		"/>
		<polygon class="st11" points="224.7,138.9 224.7,162.3 244.3,151 244.3,127.6 		"/>
	</g>
	<polygon class="st8" points="244.3,225.4 224.7,236.7 224.7,260.2 244.3,248.9 	"/>
	<polygon class="st8" points="223.3,237.5 203.7,248.8 203.7,272.3 223.3,261 	"/>
	<g>
		<polygon class="st12" points="202.3,176.9 182.7,188.2 182.7,210.8 202.3,199.5 		"/>
	</g>
	<g>
		<polygon class="st8" points="203,127.9 183.4,139.3 203.7,151 223.3,139.7 		"/>
		<polygon class="st8" points="223.3,139.7 203.7,151 203.7,174.5 223.3,163.1 		"/>
	</g>
	<g>
		<polygon class="st0" points="140.6,189 140.6,211.7 161,223.4 161,200.8 		"/>
		<polygon class="st8" points="181.3,189 161,200.7 161,223.4 181.3,211.7 		"/>
	</g>
	<g>
		<polygon class="st0" points="140.6,213.3 140.6,235.9 161,247.7 161,225 		"/>
		<polygon class="st5" points="181.3,213.3 161,225 161,247.6 181.3,235.9 		"/>
	</g>
	<polygon class="st5" points="180.5,139.3 160.9,127.9 141.3,139.3 160.9,150.6 	"/>
	<g>
		<polygon class="st0" points="118.2,151 98.6,139.7 98.6,163.1 118.2,174.5 		"/>
		<polygon class="st8" points="138.5,139.3 118.9,127.9 98.6,139.7 118.2,151 		"/>
	</g>
	<g>
		<polygon class="st8" points="202.3,151.8 182,140.1 162.3,151.4 182.7,163.1 		"/>
		<polygon class="st8" points="202.3,151.8 182.7,163.1 182.7,186.6 202.3,175.3 		"/>
	</g>
	<g>
		<polygon class="st6" points="119.6,151.8 119.6,175.3 139.2,186.6 139.2,163.1 		"/>
		<polygon class="st8" points="159.5,151.4 139.9,140.1 119.6,151.8 139.2,163.1 		"/>
	</g>
	<g>
		<polygon class="st0" points="140.6,187.4 161,199.1 161,175.7 140.6,163.9 		"/>
		<polygon class="st8" points="160.9,152.2 140.6,163.9 161,175.7 181.3,164 		"/>
		<linearGradient id="SVGID_8_" gradientUnits="userSpaceOnUse" x1="171.112" y1="163.9461" x2="171.112" y2="199.1293">
			<stop  offset="0" style="stop-color:#685A66"/>
			<stop  offset="0.4949" style="stop-color:#715A66"/>
			<stop  offset="1" style="stop-color:#785A66"/>
		</linearGradient>
		<polygon class="st14" points="181.3,187.4 181.3,163.9 161,175.7 161,199.1 		"/>
	</g>
</g>
<g id="chunk-1">
	<g>
		<polygon class="st15" points="120,14.2 139.6,25.6 159.2,14.2 139.6,2.9 		"/>
		<polygon class="st5" points="139.3,25.6 139.3,48.2 119.6,36.9 119.6,14.2 		"/>
		<polygon class="st6" points="158.9,14.2 158.9,36.9 139.3,48.2 139.3,25.6 		"/>
	</g>
</g>
<g id="chunk-2">
	<g>
		<polygon class="st15" points="204.4,47.8 224,59.1 243.6,47.8 224,36.5 		"/>
		<polygon class="st5" points="224,59.1 224,81.8 204.4,70.5 204.4,47.8 		"/>
		<polygon class="st6" points="243.6,47.8 243.6,70.5 224,81.8 224,59.1 		"/>
	</g>
</g>
<g id="chunk-3">
	<g>
		<polygon class="st15" points="270.3,129.1 289.9,140.5 309.5,129.1 289.9,117.8 		"/>
		<polygon class="st5" points="289.9,140.5 289.9,163.1 270.3,151.8 270.3,129.1 		"/>
		<polygon class="st6" points="309.5,129.1 309.5,151.8 289.9,163.1 289.9,140.5 		"/>
	</g>
</g>
<g id="chunk-4">
	<g>
		<polygon class="st16" points="281.1,235.7 300.7,247 320.3,235.7 300.7,224.3 		"/>
		<linearGradient id="SVGID_9_" gradientUnits="userSpaceOnUse" x1="281.0514" y1="252.6749" x2="300.6855" y2="252.6749">
			<stop  offset="0" style="stop-color:#685A66"/>
			<stop  offset="0.4949" style="stop-color:#715A66"/>
			<stop  offset="1" style="stop-color:#785A66"/>
		</linearGradient>
		<polygon class="st17" points="300.7,247 300.7,269.7 281.1,258.3 281.1,235.7 		"/>
		<polygon class="st18" points="320.3,235.7 320.3,258.3 300.7,269.7 300.7,247 		"/>
	</g>
</g>
<g id="chunk-5">
	<g>
		<polygon class="st15" points="193.2,198.8 212.9,210.1 232.5,198.8 212.9,187.4 		"/>
		<polygon class="st5" points="212.9,210.1 212.9,232.8 193.2,221.4 193.2,198.8 		"/>
		<polygon class="st6" points="232.5,198.8 232.5,221.4 212.9,232.8 212.9,210.1 		"/>
	</g>
</g>
<g id="chunk-7">
	<g>
		<polygon class="st15" points="52.6,242.1 72.2,253.5 91.8,242.1 72.2,230.8 		"/>
		<polygon class="st5" points="72.2,253.5 72.2,276.1 52.6,264.8 52.6,242.1 		"/>
		<polygon class="st6" points="91.8,242.1 91.8,264.8 72.2,276.1 72.2,253.5 		"/>
	</g>
</g>
<g id="chunk-6">
	<g>
		<polygon class="st15" points="29.4,283.1 49,294.4 68.6,283.1 49,271.8 		"/>
		<polygon class="st5" points="49,294.4 49,317.1 29.4,305.8 29.4,283.1 		"/>
		<polygon class="st6" points="68.6,283.1 68.6,305.8 49,317.1 49,294.4 		"/>
	</g>
</g>
<g id="chunk-8">
	<g>
		<polygon class="st15" points="25.8,196.1 45.4,207.5 65,196.1 45.4,184.8 		"/>
		<polygon class="st5" points="45.4,207.5 45.4,230.1 25.8,218.8 25.8,196.1 		"/>
		<polygon class="st6" points="65,196.1 65,218.8 45.4,230.1 45.4,207.5 		"/>
	</g>
</g>
<g id="chunk-9">
	<g>
		<polygon class="st16" points="-0.3,92.2 19.3,103.5 38.9,92.2 19.3,80.8 		"/>
		<linearGradient id="SVGID_10_" gradientUnits="userSpaceOnUse" x1="-0.3125" y1="109.1714" x2="19.3145" y2="109.1714">
			<stop  offset="0" style="stop-color:#685A66"/>
			<stop  offset="0.4949" style="stop-color:#715A66"/>
			<stop  offset="1" style="stop-color:#785A66"/>
		</linearGradient>
		<polygon class="st19" points="19.3,103.5 19.3,126.2 -0.3,114.8 -0.3,92.2 		"/>
		<polygon class="st18" points="38.9,92.2 38.9,114.8 19.3,126.2 19.3,103.5 		"/>
	</g>
</g>
<g id="chunk-10">
	<g>
		<polygon class="st15" points="120.3,93.1 139.9,104.5 159.6,93.1 139.9,81.8 		"/>
		<polygon class="st5" points="139.9,104.5 139.9,127.1 120.3,115.8 120.3,93.1 		"/>
		<polygon class="st6" points="159.6,93.1 159.6,115.8 139.9,127.1 139.9,104.5 		"/>
	</g>
</g>
</svg>
