<?xml version="1.0" encoding="utf-8"?><!DOCTYPE svg PUBLIC "-//W3C//DTD SVG 1.1//EN" "http://www.w3.org/Graphics/SVG/1.1/DTD/svg11.dtd"><svg version="1.1" id="Layer_1" xmlns="http://www.w3.org/2000/svg" xmlns:xlink="http://www.w3.org/1999/xlink" x="0px" y="0px" width="40px" height="40px" viewBox="0 0 40 40" enable-background="new 0 0 40 40" xml:space="preserve"><path fill="#3480C2" d="M39.035,4.563H0.966c-0.397,0-0.717,0.321-0.717,0.717v29.481c0,0.396,0.32,0.717,0.717,0.717h38.069 c0.395,0,0.717-0.321,0.717-0.717V5.28C39.752,4.885,39.43,4.563,39.035,4.563 M20.768,20.668l-4.828,0.356	c-0.148,0.011-0.238,0.163-0.178,0.298l3.269,7.256c0.04,0.085,0.001,0.187-0.084,0.224l-2.508,1.131 c-0.086,0.038-0.187,0-0.225-0.084l-3.27-7.258c-0.06-0.135-0.236-0.168-0.341-0.065l-3.464,3.383 c-0.106,0.104-0.288,0.028-0.288-0.122L8.838,10.092c0-0.145,0.172-0.224,0.281-0.126l11.749,10.406 C20.98,20.472,20.918,20.657,20.768,20.668"/></svg>