<?xml version="1.0" encoding="utf-8"?><svg version="1.1" id="Layer_1" xmlns="http://www.w3.org/2000/svg" xmlns:xlink="http://www.w3.org/1999/xlink" x="0px" y="0px" width="40px" height="40px" viewBox="0 0 40 40" enable-background="new 0 0 40 40" xml:space="preserve"><path fill="#3580C3" d="M33.555,20.253c0.209-0.683,0.323-1.409,0.323-2.161c0-4.088-3.315-7.403-7.405-7.403 c-1.175,0-2.287,0.275-3.274,0.761c-1.325-3.929-5.041-6.759-9.417-6.759c-5.491,0-9.942,4.45-9.942,9.939 c0,1.626,0.393,3.161,1.083,4.516c-2.892,1.396-4.886,4.357-4.886,7.784c0,4.773,3.868,8.642,8.641,8.642h23.2 c4.279,0,7.75-3.471,7.75-7.751C39.627,24.119,37.028,21.021,33.555,20.253z M13.336,30.667c0,0.294-0.239,0.532-0.534,0.532h-2.186 c-0.295,0-0.534-0.238-0.534-0.532V21.16c0-0.293,0.239-0.532,0.534-0.532h2.186c0.294,0,0.534,0.239,0.534,0.532V30.667z M18.215,30.667c0,0.294-0.239,0.532-0.534,0.532h-2.186c-0.295,0-0.534-0.238-0.534-0.532V15.469c0-0.295,0.239-0.534,0.534-0.534 h2.186c0.294,0,0.534,0.239,0.534,0.534V30.667z M23.095,30.667c0,0.294-0.239,0.532-0.533,0.532h-2.187 c-0.294,0-0.534-0.238-0.534-0.532v-7.066c0-0.294,0.239-0.534,0.534-0.534h2.187c0.294,0,0.533,0.24,0.533,0.534V30.667z M27.973,30.667c0,0.294-0.238,0.532-0.532,0.532h-2.187c-0.294,0-0.533-0.238-0.533-0.532V20.348c0-0.295,0.239-0.534,0.533-0.534 h2.187c0.294,0,0.532,0.239,0.532,0.534V30.667z"/></svg>
