<?xml version="1.0" encoding="utf-8"?><!DOCTYPE svg PUBLIC "-//W3C//DTD SVG 1.1//EN" "http://www.w3.org/Graphics/SVG/1.1/DTD/svg11.dtd"><svg version="1.1" id="Layer_1" xmlns="http://www.w3.org/2000/svg" xmlns:xlink="http://www.w3.org/1999/xlink" x="0px" y="0px" width="40px" height="40px" viewBox="0 0 40 40" enable-background="new 0 0 40 40" xml:space="preserve"><path fill="#3480C2" d="M19.961,18.104c10.893,0,19.725-3.678,19.725-8.217c0-4.54-8.832-8.221-19.725-8.221 C9.07,1.666,0.237,5.347,0.237,9.887C0.237,14.426,9.07,18.104,19.961,18.104 M19.961,31.252c10.893,0,19.725-3.677,19.725-8.216 c0-0.858-0.316-1.688-0.902-2.465c-2.515,3.333-9.99,5.751-18.823,5.751c-8.832,0-16.307-2.418-18.822-5.751 c-0.586,0.777-0.902,1.607-0.902,2.465C0.237,27.575,9.07,31.252,19.961,31.252 M19.961,37.828c10.893,0,19.725-3.677,19.725-8.217 c0-0.859-0.316-1.687-0.902-2.466c-2.515,3.334-9.99,5.752-18.823,5.752c-8.832,0-16.307-2.418-18.822-5.752	c-0.586,0.779-0.902,1.606-0.902,2.466C0.237,34.151,9.07,37.828,19.961,37.828 M19.961,24.678c10.893,0,19.725-3.678,19.725-8.217 c0-0.858-0.316-1.686-0.902-2.465c-2.515,3.334-9.99,5.751-18.823,5.751c-8.832,0-16.307-2.417-18.822-5.751	c-0.586,0.779-0.902,1.606-0.902,2.465C0.237,21,9.07,24.678,19.961,24.678 M19.961,7.182c2.754,0,4.987,0.932,4.987,2.078 c0,1.149-2.232,2.078-4.987,2.078c-2.754,0-4.984-0.929-4.984-2.078C14.978,8.113,17.208,7.182,19.961,7.182"/></svg>