<?xml version="1.0" encoding="utf-8"?>
<!-- Generator: Adobe Illustrator 18.1.1, SVG Export Plug-In . SVG Version: 6.00 Build 0)  -->
<!DOCTYPE svg PUBLIC "-//W3C//DTD SVG 1.1//EN" "http://www.w3.org/Graphics/SVG/1.1/DTD/svg11.dtd">
<svg version="1.1" id="Layer_1" xmlns="http://www.w3.org/2000/svg" xmlns:xlink="http://www.w3.org/1999/xlink" x="0px" y="0px"
	 viewBox="0 0 59.7 45.1" enable-background="new 0 0 59.7 45.1" xml:space="preserve">
<path fill="#404040" d="M56.9,14.6c0.8,0,1.3-0.3,1.6-0.6c0.7-0.6,1.1-1.8,1.1-3.4C59.7,7.9,58,6,55.8,6c-1.7,0-3,1.1-3.6,2.8
	c-3.4-3.2-7.9-5.1-12.9-5.1H22.9l-0.7,0c-0.7,0-1.7,0-2.2,0L12.7,0v6.6c-3,1.9-5.4,4.7-6.9,8H0l2.6,14.9h2.8
	c2.2,5.5,6.9,9.7,12.7,11.2l0.8,4.5h9.4v-3.9h6.3v3.9H44l0.8-4.7c7.8-2.4,13.3-9.7,13.3-18c0-2.8-0.6-5.5-1.7-7.9c0,0,0,0,0,0
	C56.6,14.6,56.8,14.6,56.9,14.6z M43.9,39l-0.5,0.1l-0.8,4.4h-6.5v-3.9h-9.4v3.9h-6.5l-0.7-4.2L19,39.2c-5.7-1.3-10.3-5.3-12.3-10.8
	l-0.2-0.5H3.9L1.9,16.2h4.9L7,15.7c1.4-3.3,3.8-6.1,6.9-8l0.4-0.2V2.5l5.3,2.6l0.2,0c0.3,0,1.6,0,2.4,0l17.2,0
	c9.5,0,17.2,7.7,17.2,17.2C56.6,30.1,51.4,37,43.9,39z M53.5,10.1c0.2-1.2,0.8-2.5,2.3-2.5c1.6,0,2.4,1.6,2.4,3.1
	c0,1.1-0.2,1.9-0.6,2.2c-0.1,0.1-0.3,0.3-0.9,0.2C56.2,13,56,12.4,56,12.3c-0.1-0.4,0-1,0.6-1.4c0.4-0.2,0.5-0.7,0.3-1.1
	c-0.2-0.4-0.7-0.5-1.1-0.3c-0.7,0.4-1.1,1-1.3,1.7C54.2,10.9,53.8,10.5,53.5,10.1z M13.1,13.8c-1.5,0-2.7,1.2-2.7,2.7
	s1.2,2.7,2.7,2.7c1.5,0,2.7-1.2,2.7-2.7S14.6,13.8,13.1,13.8z M13.1,17.7c-0.6,0-1.2-0.5-1.2-1.2c0-0.6,0.5-1.2,1.2-1.2
	c0.6,0,1.2,0.5,1.2,1.2C14.3,17.2,13.7,17.7,13.1,17.7z M36.2,24.8c0,1.7-1.4,3.1-3.1,3.1h-0.8v1.6h-1.6v-1.6h-0.8
	c-1.7,0-3.1-1.4-3.1-3.1h1.6c0,0.9,0.7,1.6,1.6,1.6h3.1c0.9,0,1.6-0.7,1.6-1.6c0-0.9-0.7-1.6-1.6-1.6h-3.1c-1.7,0-3.1-1.4-3.1-3.1
	c0-1.7,1.4-3.1,3.1-3.1h0.8v-1.6h1.6v1.6h0.4c1.7,0,3.1,1.4,3.1,3.1h-1.6c0-0.9-0.7-1.6-1.6-1.6h-2.7c-0.9,0-1.6,0.7-1.6,1.6
	c0,0.9,0.7,1.6,1.6,1.6h3.1C34.8,21.6,36.2,23,36.2,24.8z M31.5,9.9C24.6,9.9,19,15.5,19,22.4C19,29.3,24.6,35,31.5,35
	C38.4,35,44,29.3,44,22.4C44,15.5,38.4,9.9,31.5,9.9z M31.5,33.4c-6,0-11-4.9-11-11c0-6,4.9-11,11-11c6,0,11,4.9,11,11
	C42.5,28.5,37.5,33.4,31.5,33.4z"/>
</svg>
