<?xml version="1.0" encoding="utf-8"?>
<!-- Generator: Adobe Illustrator 18.1.1, SVG Export Plug-In . SVG Version: 6.00 Build 0)  -->
<!DOCTYPE svg PUBLIC "-//W3C//DTD SVG 1.1//EN" "http://www.w3.org/Graphics/SVG/1.1/DTD/svg11.dtd">
<svg version="1.1" id="Layer_1" xmlns="http://www.w3.org/2000/svg" xmlns:xlink="http://www.w3.org/1999/xlink" x="0px" y="0px"
	 viewBox="0 0 46 46" enable-background="new 0 0 46 46" xml:space="preserve">
<path fill="#404040" d="M45.2,28.9C45.7,27,46,25,46,23c0-2-0.3-4-0.8-6l-0.3-1l-0.5,0.1c0-0.8,0.1-1.6,0.2-2.4
	c0.4-3.4,0.9-7.3-2.2-10.3c-3-3-6.9-2.5-10.3-2.1c-0.8,0.1-1.6,0.2-2.4,0.2L29.9,1l-1-0.3c-3.9-1-8-1-11.9,0l-1,0.3l0.1,0.5
	c-0.8-0.1-1.6-0.1-2.4-0.2C10.3,0.9,6.4,0.4,3.4,3.4c-3,3-2.5,6.9-2.1,10.3c0.1,0.8,0.2,1.6,0.2,2.4L1,16.1l-0.3,1C0.3,19,0,21,0,23
	c0,2,0.3,4,0.8,6l0.3,1l0.5-0.1c-0.1,0.8-0.1,1.6-0.2,2.4c-0.4,3.4-0.9,7.3,2.2,10.3c2,1.9,4.3,2.4,6.6,2.4c1.3,0,2.5-0.2,3.8-0.3
	c0.8-0.1,1.6-0.2,2.4-0.2L16.1,45l1,0.3C19,45.7,21,46,23,46c2,0,4-0.3,6-0.8l1-0.3l-0.1-0.5c0.8,0,1.6,0.1,2.4,0.2
	c1.2,0.1,2.5,0.3,3.8,0.3c2.3,0,4.6-0.5,6.5-2.5c3-3,2.5-6.9,2.1-10.3c-0.1-0.8-0.2-1.6-0.2-2.4l0.5,0.1L45.2,28.9z M12.2,19.1
	L5,17.1C6.9,11.4,11.4,6.9,17.1,5l1.9,7.2C15.9,13.4,13.4,15.9,12.2,19.1z M2.5,18.5l9.2,2.5c-0.1,0.6-0.2,1.3-0.2,2
	c0,0.7,0.1,1.3,0.2,2l-9.2,2.5C2.2,26,2,24.5,2,23C2,21.5,2.2,20,2.5,18.5z M12.2,26.9c1.2,3.2,3.7,5.7,6.9,6.8L17.1,41
	C11.4,39.1,6.9,34.6,5,28.8L12.2,26.9z M13.5,23c0-5.2,4.3-9.5,9.5-9.5c5.2,0,9.5,4.3,9.5,9.5s-4.3,9.5-9.5,9.5
	C17.8,32.5,13.5,28.2,13.5,23z M26.9,12.2L28.9,5c5.7,1.9,10.3,6.4,12.1,12.1l-7.2,1.9C32.6,15.9,30.1,13.4,26.9,12.2z M33.8,26.9
	l7.2,1.9c-1.9,5.7-6.4,10.3-12.1,12.1l-1.9-7.2C30.1,32.6,32.6,30.1,33.8,26.9z M43.5,27.5L34.3,25c0.1-0.6,0.2-1.3,0.2-2
	c0-0.7-0.1-1.3-0.2-2l9.2-2.5c0.3,1.5,0.5,3,0.5,4.5C44,24.5,43.8,26,43.5,27.5z M32.4,3.3c3.3-0.4,6.4-0.8,8.7,1.6
	c2.3,2.3,2,5.4,1.6,8.7c-0.1,0.7-0.2,1.3-0.2,2c-2.1-5.5-6.5-9.9-12-12C31.1,3.4,31.8,3.4,32.4,3.3z M27.5,2.5L25,11.7
	c-0.6-0.1-1.3-0.2-2-0.2c-0.7,0-1.3,0.1-2,0.2l-2.5-9.2C21.5,1.8,24.5,1.8,27.5,2.5z M4.9,4.8c2.3-2.3,5.4-2,8.7-1.6
	c0.7,0.1,1.3,0.2,2,0.2c-5.5,2.1-9.9,6.5-12,12c-0.1-0.7-0.1-1.3-0.2-2C2.9,10.3,2.5,7.2,4.9,4.8z M13.6,42.7
	c-3.3,0.4-6.4,0.8-8.7-1.6c-2.3-2.3-2-5.4-1.6-8.7c0.1-0.7,0.2-1.3,0.2-2c2.1,5.5,6.5,9.9,12,12C14.9,42.6,14.2,42.6,13.6,42.7z
	 M18.5,43.5l2.5-9.2c0.6,0.1,1.3,0.2,2,0.2c0.7,0,1.3-0.1,2-0.2l2.5,9.2C24.5,44.2,21.5,44.2,18.5,43.5z M41.1,41.1
	c-2.3,2.3-5.4,2-8.7,1.6c-0.7-0.1-1.3-0.2-2-0.2c5.5-2.1,9.9-6.5,12-12c0.1,0.7,0.1,1.3,0.2,2C43.1,35.7,43.5,38.8,41.1,41.1z"/>
</svg>
