<?xml version="1.0" encoding="utf-8"?>
<!-- Generator: Adobe Illustrator 18.1.1, SVG Export Plug-In . SVG Version: 6.00 Build 0)  -->
<!DOCTYPE svg PUBLIC "-//W3C//DTD SVG 1.1//EN" "http://www.w3.org/Graphics/SVG/1.1/DTD/svg11.dtd">
<svg version="1.1" id="Layer_1" xmlns="http://www.w3.org/2000/svg" xmlns:xlink="http://www.w3.org/1999/xlink" x="0px" y="0px"
	 viewBox="0 0 66 58" enable-background="new 0 0 66 58" xml:space="preserve">
<path fill="#404040" d="M14,5c-1.7,0-3,1.3-3,3c0,1.7,1.3,3,3,3s3-1.3,3-3C17,6.3,15.7,5,14,5z M14,3c2.8,0,5,2.2,5,5
	c0,2.8-2.2,5-5,5c-2.8,0-5-2.2-5-5C9,5.2,11.2,3,14,3z M13,58H7V24.1c-0.6,1.2-1,2.5-1,3.9v8H0v-8c0-7.7,6.3-14,14-14h5
	c3.9,0,7-3.1,7-7V0h6v7c0,6.5-4.8,11.9-11,12.8V58h-6V36h-2V58z M11,34h6v22h2V17.9h1.4C25.8,17.2,30,12.6,30,7V2h-2v5c0,5-4,9-9,9
	h-5C7.4,16,2,21.4,2,28v6h2v-6c0-2.8,1.2-5.6,3.3-7.5c0.3-0.3,0.7-0.3,1.1-0.2C8.8,20.5,9,20.9,9,21.3V56h2V34z M55,34v22h2V21.3
	c0-0.4,0.2-0.8,0.6-0.9c0.4-0.2,0.8-0.1,1.1,0.2c2.1,1.9,3.3,4.6,3.3,7.5v6h2v-6c0-6.6-5.4-12-12-12h-5c-5,0-9-4-9-9V2h-2v5
	c0,5.6,4.2,10.2,9.6,10.9H47V56h2V34H55z M53,58V36h-2v22h-6V19.8c-6.2-1-11-6.3-11-12.8V0h6v7c0,3.9,3.1,7,7,7h5
	c7.7,0,14,6.3,14,14v8h-6v-8c0-1.4-0.4-2.7-1-3.9V58H53z M52,3c2.8,0,5,2.2,5,5c0,2.8-2.2,5-5,5c-2.8,0-5-2.2-5-5
	C47,5.2,49.2,3,52,3z M52,5c-1.7,0-3,1.3-3,3c0,1.7,1.3,3,3,3s3-1.3,3-3C55,6.3,53.7,5,52,5z"/>
</svg>
