<?xml version="1.0" encoding="utf-8"?><!DOCTYPE svg PUBLIC "-//W3C//DTD SVG 1.1//EN" "http://www.w3.org/Graphics/SVG/1.1/DTD/svg11.dtd"><svg version="1.1" id="Layer_1" xmlns="http://www.w3.org/2000/svg" xmlns:xlink="http://www.w3.org/1999/xlink" x="0px" y="0px" width="40px" height="40px" viewBox="0 0 40 40" enable-background="new 0 0 40 40" xml:space="preserve"><path fill="#3480C2" d="M36.64,17.506c-1.044-3.615-3.917-6.461-7.55-7.465c-0.133-1.483-1.377-2.645-2.895-2.645 c-0.817,0-1.556,0.338-2.084,0.881v4.056c0.528,0.543,1.267,0.881,2.084,0.881c1.234,0,2.287-0.772,2.709-1.857	c3.059,0.906,5.481,3.304,6.423,6.348c-1.071,0.429-1.828,1.475-1.828,2.699c0,1.235,0.772,2.289,1.856,2.71 c-0.917,3.093-3.358,5.535-6.451,6.451c-0.422-1.086-1.475-1.856-2.709-1.856c-0.817,0-1.556,0.337-2.084,0.881v4.057 c0.528,0.543,1.267,0.881,2.084,0.881c1.518,0,2.762-1.162,2.895-2.646c3.673-1.015,6.565-3.911,7.584-7.581 c1.481-0.134,2.644-1.379,2.644-2.896C39.317,18.875,38.139,17.625,36.64,17.506"/><path fill="#3480C2" d="M0.683,5.037v30.854l22.911,4.245V0.786L0.683,5.037z M11.07,29.143c-2.029,0-4.033-0.526-5.036-1.082 l0.819-3.32c1.081,0.554,2.741,1.106,4.456,1.106c1.844,0,2.82-0.764,2.82-1.925c0-1.106-0.844-1.739-2.978-2.503 c-2.954-1.029-4.878-2.663-4.878-5.247c0-3.031,2.53-5.352,6.723-5.352c2.004,0,3.48,0.422,4.535,0.896l-0.896,3.243 c-0.71-0.342-1.977-0.843-3.717-0.843s-2.584,0.79-2.584,1.714c0,1.135,1.003,1.634,3.295,2.504c3.138,1.16,4.615,2.794,4.615,5.299	C18.242,26.611,15.947,29.143,11.07,29.143"/></svg>