<?xml version="1.0" encoding="utf-8"?><svg version="1.1" id="Layer_1" xmlns="http://www.w3.org/2000/svg" xmlns:xlink="http://www.w3.org/1999/xlink" x="0px" y="0px" width="40px" height="40px" viewBox="0 0 40 40" enable-background="new 0 0 40 40" xml:space="preserve"><path fill="#3480C2" d="M3.919,14.123c0-5.544,4.496-10.04,10.041-10.04c4.421,0,8.175,2.858,9.515,6.828 c0.997-0.493,2.121-0.77,3.308-0.77c4.13,0,7.476,3.347,7.476,7.478c0,0.759-0.111,1.493-0.323,2.184	c3.509,0.775,6.133,3.903,6.133,7.644c0,4.323-3.506,7.828-7.828,7.828H8.806c-4.82,0-8.727-3.907-8.727-8.728 c0-3.462,2.015-6.452,4.935-7.863C4.315,17.315,3.919,15.765,3.919,14.123z"/><path fill="#FFFFFF" d="M12.716,26.108v-6.855h-1.028l-1.816,3.428l1.816,3.427H12.716z M18.37,24.332l-1.617,3.049h-5.858 l-2.491-4.699l2.491-4.701h5.858l1.617,3.048h11.583l1.552,1.002v0.223H19.771v0.636h11.733v0.215l-1.154,1.735h-1.025l-0.969-0.86 h-0.809l-0.68,0.665H25.83l-0.623-0.608h-0.865l-1.301,1.187h-2.483l-0.91-0.891H18.37z"/></svg>