<?xml version="1.0" encoding="utf-8"?>
<!-- Generator: Adobe Illustrator 19.1.0, SVG Export Plug-In . SVG Version: 6.00 Build 0)  -->
<svg version="1.1" id="Layer_1" xmlns="http://www.w3.org/2000/svg" xmlns:xlink="http://www.w3.org/1999/xlink" x="0px" y="0px"
	 viewBox="0 100 980 200" style="enable-background:new 0 100 980 200;" xml:space="preserve">
<style type="text/css">
	.st0{fill:#9CE7F6;}
	.st1{fill:#6BC6D8;}
	.st2{fill:#F0F5FC;}
	.st3{fill:#5D6D7E;}
	.st4{fill:#F5F7FA;}
	.st5{fill:#FFD680;}
	.st6{fill:#E7E7E7;}
	.st7{fill:#B7DCD8;}
	.st8{fill:url(#SVGID_1_);}
	.st9{fill:#A57A89;}
	.st10{fill:#966875;}
	.st11{fill:url(#SVGID_2_);}
	.st12{fill:#D8D7D6;}
	.st13{fill:#E5E4E4;}
	.st14{fill:#CBCAC9;}
	.st15{fill:#83D6E7;}
	.st16{fill:url(#SVGID_3_);}
</style>
<polygon class="st0" points="12.8,261.9 38,242.7 33.9,211.3 8.7,230.5 "/>
<polygon class="st1" points="38,242.7 67.2,254.8 42,274.1 12.8,261.9 "/>
<polygon class="st2" points="33.9,211.3 63.1,223.4 67.2,254.8 38,242.7 "/>
<polygon class="st0" points="936.4,292 943.9,275.8 933.6,261.1 926.1,277.4 "/>
<polygon class="st1" points="943.9,275.8 961.7,274.2 954.2,290.4 936.4,292 "/>
<polygon class="st2" points="933.6,261.1 951.4,259.5 961.7,274.2 943.9,275.8 "/>
<polygon class="st3" points="484,285.7 498.1,287.6 506.8,276.4 492.7,274.5 "/>
<polygon class="st1" points="498.1,287.6 503.5,300.7 489.4,298.8 484,285.7 "/>
<polygon class="st4" points="506.8,276.4 512.1,289.5 503.5,300.7 498.1,287.6 "/>
<polygon class="st5" points="98.5,144.2 118.1,155.5 137.7,144.2 118.1,132.8 "/>
<polygon class="st3" points="118.1,155.5 118.1,178.2 98.5,166.8 98.5,144.2 "/>
<polygon class="st4" points="137.7,144.2 137.7,166.8 118.1,178.2 118.1,155.5 "/>
<path class="st6" d="M651.1,142.6c-12.9,0-23.4,10.5-23.4,23.4c0-12.9-10.5-23.4-23.4-23.4c12.9,0,23.4-10.5,23.4-23.4
	C627.7,132.1,638.2,142.6,651.1,142.6z"/>
<path class="st6" d="M814.2,114.4c-6.8,0-12.3,5.5-12.3,12.3c0-6.8-5.5-12.3-12.3-12.3c6.8,0,12.3-5.5,12.3-12.3
	C801.9,108.9,807.4,114.4,814.2,114.4z"/>
<path class="st6" d="M936.7,208.9c-4.8,0-8.8,3.9-8.8,8.8c0-4.8-3.9-8.8-8.8-8.8c4.8,0,8.8-3.9,8.8-8.8
	C927.9,204.9,931.8,208.9,936.7,208.9z"/>
<g>
	<polygon class="st7" points="198.1,210.6 204.1,220.6 215.8,220.5 209.8,210.4 	"/>
	<polygon class="st3" points="204.1,220.6 198.4,230.8 192.4,220.8 198.1,210.6 	"/>
	<polygon class="st4" points="215.8,220.5 210.1,230.6 198.4,230.8 204.1,220.6 	"/>
</g>
<g>
	<polygon class="st7" points="962.9,117 960.1,128.3 968.5,136.4 971.3,125.1 	"/>
	<polygon class="st3" points="960.1,128.3 948.8,131.5 951.7,120.2 962.9,117 	"/>
	<polygon class="st4" points="968.5,136.4 957.2,139.6 948.8,131.5 960.1,128.3 	"/>
</g>
<g>
	
		<linearGradient id="SVGID_1_" gradientUnits="userSpaceOnUse" x1="535.7" y1="244.5" x2="563.9503" y2="244.5" gradientTransform="matrix(1 0 0 -1 0 400)">
		<stop  offset="0" style="stop-color:#685A66"/>
		<stop  offset="0.4949" style="stop-color:#715A66"/>
		<stop  offset="1" style="stop-color:#785A66"/>
	</linearGradient>
	<polygon class="st8" points="535.7,141.9 542,163.7 564,169.1 557.7,147.4 	"/>
	<polygon class="st9" points="542,163.7 526.2,180 520,158.2 535.7,141.9 	"/>
	<polygon class="st10" points="564,169.1 548.2,185.4 526.2,180 542,163.7 	"/>
</g>
<g>
	
		<linearGradient id="SVGID_2_" gradientUnits="userSpaceOnUse" x1="2877.3337" y1="-1917.8445" x2="2890.5945" y2="-1917.8445" gradientTransform="matrix(0.7071 0.7071 0.7071 -0.7071 -313.66 -3168.9612)">
		<stop  offset="0" style="stop-color:#685A66"/>
		<stop  offset="0.4949" style="stop-color:#715A66"/>
		<stop  offset="1" style="stop-color:#785A66"/>
	</linearGradient>
	<polygon class="st11" points="369.3,217.164 364.2,226.564 369.7,235.664 374.8,226.364 	"/>
	<polygon class="st9" points="364.2,226.564 353.5,226.664 358.7,217.364 369.3,217.164 	"/>
	<polygon class="st10" points="369.7,235.664 359,235.864 353.5,226.664 364.2,226.564 	"/>
</g>
<g>
	<polygon class="st12" points="728.519,174.093 793.268,217.259 793.268,130.856 	"/>
	<polygon class="st13" points="858.018,174.093 793.268,217.259 793.268,130.856 	"/>
	<polygon class="st2" points="793.268,130.856 728.519,174.093 693,150.366 757.749,107.2 	"/>
	<polygon class="st2" points="793.268,130.856 858.018,174.093 893.537,150.366 828.787,107.2 	"/>
	<polygon class="st14" points="793.268,174.022 736.881,211.613 793.268,249.205 849.584,211.613 	"/>
	<polygon class="st0" points="728.519,174.093 728.519,249.634 793.268,292.8 793.268,217.259 	"/>
	<polygon class="st15" points="858.018,174.093 858.018,249.634 793.268,292.8 793.268,217.259 	"/>
	<polygon class="st1" points="858.018,174.093 858.018,249.634 814.065,278.935 793.268,217.259 	"/>
	<polygon class="st2" points="893.537,197.749 828.787,240.915 793.268,217.259 858.018,174.093 	"/>
	<polygon class="st2" points="693,197.749 757.749,240.915 793.268,217.259 728.519,174.093 	"/>
	<g>
		<polygon class="st7" points="806.919,174.736 810.706,182.169 818.996,182.598 815.209,175.165 		"/>
		<polygon class="st3" points="810.706,182.169 806.132,189.101 802.345,181.74 806.919,174.736 		"/>
		<polygon class="st4" points="818.996,182.598 814.494,189.53 806.132,189.101 810.706,182.169 		"/>
	</g>
	<g>
		<polygon class="st10" points="755.105,177.524 770.899,173.879 775.616,158.37 759.822,162.015 		"/>
		
			<linearGradient id="SVGID_3_" gradientUnits="userSpaceOnUse" x1="391.2792" y1="3445.3503" x2="405.3029" y2="3445.3503" gradientTransform="matrix(0.7302 -0.6832 -0.6832 -0.7302 2831.5603 2969.4822)">
			<stop  offset="0" style="stop-color:#685A66"/>
			<stop  offset="0.4949" style="stop-color:#715A66"/>
			<stop  offset="1" style="stop-color:#785A66"/>
		</linearGradient>
		<polygon class="st16" points="770.899,173.879 781.905,185.671 766.182,189.316 755.105,177.524 		"/>
		<polygon class="st9" points="775.616,158.37 786.622,170.162 781.905,185.671 770.899,173.879 		"/>
	</g>
</g>
</svg>
