<?xml version="1.0" encoding="utf-8"?>
<!-- Generator: Adobe Illustrator 19.1.0, SVG Export Plug-In . SVG Version: 6.00 Build 0)  -->
<svg version="1.1" id="Layer_1" xmlns="http://www.w3.org/2000/svg" xmlns:xlink="http://www.w3.org/1999/xlink" x="0px" y="0px"
	 viewBox="0 0 980 400" style="enable-background:new 0 0 980 400;" xml:space="preserve">
<style type="text/css">
	.st0{fill:#9CE7F6;}
	.st1{fill:#6BC6D8;}
	.st2{fill:#F0F5FC;}
	.st3{fill:#5D6D7E;}
	.st4{fill:#F5F7FA;}
	.st5{fill:#FFD680;}
	.st6{fill:#D8D7D6;}
	.st7{fill:#E5E4E4;}
	.st8{fill:#CBCAC9;}
	.st9{fill:#83D6E7;}
	.st10{fill:#E7E7E7;}
	.st11{fill:#B7DCD8;}
	.st12{fill:url(#SVGID_1_);}
	.st13{fill:#A57A89;}
	.st14{fill:#966875;}
	.st15{fill:url(#SVGID_2_);}
	.st16{fill:url(#SVGID_3_);}
</style>
<g>
	<polygon class="st0" points="12.8,261.9 38,242.7 33.9,211.3 8.7,230.5 	"/>
	<polygon class="st1" points="38,242.7 67.2,254.8 42,274.1 12.8,261.9 	"/>
	<polygon class="st2" points="33.9,211.3 63.1,223.4 67.2,254.8 38,242.7 	"/>
	<polygon class="st0" points="936.4,315.9 943.9,299.7 933.6,285 926.1,301.3 	"/>
	<polygon class="st1" points="943.9,299.7 961.7,298.1 954.2,314.3 936.4,315.9 	"/>
	<polygon class="st2" points="933.6,285 951.4,283.4 961.7,298.1 943.9,299.7 	"/>
	<polygon class="st3" points="484,285.7 498.1,287.6 506.8,276.4 492.7,274.5 	"/>
	<polygon class="st1" points="498.1,287.6 503.5,300.7 489.4,298.8 484,285.7 	"/>
	<polygon class="st4" points="506.8,276.4 512.1,289.5 503.5,300.7 498.1,287.6 	"/>
	<g>
		<polygon class="st5" points="151.6,28.4 156.6,39 168.2,39.9 163.3,29.4 		"/>
		<polygon class="st3" points="156.6,39 150,48.5 145,38 151.6,28.4 		"/>
		<polygon class="st4" points="168.2,39.9 161.6,49.5 150,48.5 156.6,39 		"/>
	</g>
	<polygon class="st5" points="651.5,101.3 671.1,112.6 690.7,101.3 671.1,89.9 	"/>
	<polygon class="st3" points="671.1,112.6 671.1,135.3 651.5,123.9 651.5,101.3 	"/>
	<polygon class="st4" points="690.7,101.3 690.7,123.9 671.1,135.3 671.1,112.6 	"/>
	<polygon class="st6" points="706.7,208 797.3,268.4 797.3,147.5 	"/>
	<polygon class="st7" points="887.9,208 797.3,268.4 797.3,147.5 	"/>
	<polygon class="st2" points="797.3,147.5 706.7,208 657,174.8 747.6,114.4 	"/>
	<polygon class="st2" points="797.3,147.5 887.9,208 937.6,174.8 847,114.4 	"/>
	<polygon class="st8" points="797.3,207.9 718.4,260.5 797.3,313.1 876.1,260.5 	"/>
	<polygon class="st0" points="706.7,208 706.7,313.7 797.3,374.1 797.3,268.4 	"/>
	<polygon class="st9" points="887.9,208 887.9,313.7 797.3,374.1 797.3,268.4 	"/>
	<polygon class="st1" points="887.9,208 887.9,313.7 826.4,354.7 797.3,268.4 	"/>
	<polygon class="st2" points="937.6,241.1 847,301.5 797.3,268.4 887.9,208 	"/>
	<polygon class="st2" points="657,241.1 747.6,301.5 797.3,268.4 706.7,208 	"/>
	<path class="st10" d="M651.1,142.6c-12.9,0-23.4,10.5-23.4,23.4c0-12.9-10.5-23.4-23.4-23.4c12.9,0,23.4-10.5,23.4-23.4
		C627.7,132.1,638.2,142.6,651.1,142.6z"/>
	<path class="st10" d="M863.6,46.9c-11.6,0-21,9.4-21,21.1c0-11.6-9.4-21.1-21-21.1c11.6,0,21-9.5,21-21.1
		C842.6,37.5,852,46.9,863.6,46.9z"/>
	<path class="st10" d="M814.2,114.4c-6.8,0-12.3,5.5-12.3,12.3c0-6.8-5.5-12.3-12.3-12.3c6.8,0,12.3-5.5,12.3-12.3
		C801.9,108.9,807.4,114.4,814.2,114.4z"/>
	<path class="st10" d="M896.7,96.9c-4.8,0-8.8,3.9-8.8,8.8c0-4.8-3.9-8.8-8.8-8.8c4.8,0,8.8-3.9,8.8-8.8
		C887.9,92.9,891.8,96.9,896.7,96.9z"/>
	<path class="st10" d="M936.7,208.9c-4.8,0-8.8,3.9-8.8,8.8c0-4.8-3.9-8.8-8.8-8.8c4.8,0,8.8-3.9,8.8-8.8
		C927.9,204.9,931.8,208.9,936.7,208.9z"/>
	<g>
		<polygon class="st11" points="198.1,210.6 204.1,220.6 215.8,220.5 209.8,210.4 		"/>
		<polygon class="st3" points="204.1,220.6 198.4,230.8 192.4,220.8 198.1,210.6 		"/>
		<polygon class="st4" points="215.8,220.5 210.1,230.6 198.4,230.8 204.1,220.6 		"/>
	</g>
	<g>
		<polygon class="st11" points="962.9,80.3 960.1,91.6 968.5,99.7 971.3,88.4 		"/>
		<polygon class="st3" points="960.1,91.6 948.8,94.8 951.7,83.5 962.9,80.3 		"/>
		<polygon class="st4" points="968.5,99.7 957.2,102.9 948.8,94.8 960.1,91.6 		"/>
	</g>
	<g>
		<polygon class="st11" points="816.4,208.9 821.7,219.3 833.3,219.9 828,209.5 		"/>
		<polygon class="st3" points="821.7,219.3 815.3,229 810,218.7 816.4,208.9 		"/>
		<polygon class="st4" points="833.3,219.9 827,229.6 815.3,229 821.7,219.3 		"/>
	</g>
	<g>
		<linearGradient id="SVGID_1_" gradientUnits="userSpaceOnUse" x1="535.7054" y1="155.5087" x2="563.9556" y2="155.5087">
			<stop  offset="0" style="stop-color:#685A66"/>
			<stop  offset="0.4949" style="stop-color:#715A66"/>
			<stop  offset="1" style="stop-color:#785A66"/>
		</linearGradient>
		<polygon class="st12" points="535.7,141.9 542,163.7 564,169.1 557.7,147.4 		"/>
		<polygon class="st13" points="542,163.7 526.2,180 520,158.2 535.7,141.9 		"/>
		<polygon class="st14" points="564,169.1 548.2,185.4 526.2,180 542,163.7 		"/>
	</g>
	<g>
		
			<linearGradient id="SVGID_2_" gradientUnits="userSpaceOnUse" x1="2879.0562" y1="2483.8867" x2="2892.3169" y2="2483.8867" gradientTransform="matrix(0.7071 0.7071 -0.7071 0.7071 -30.82 -3451.8013)">
			<stop  offset="0" style="stop-color:#685A66"/>
			<stop  offset="0.4949" style="stop-color:#715A66"/>
			<stop  offset="1" style="stop-color:#785A66"/>
		</linearGradient>
		<polygon class="st15" points="253.1,335.8 248,345.2 253.5,354.3 258.6,345 		"/>
		<polygon class="st13" points="248,345.2 237.3,345.3 242.5,336 253.1,335.8 		"/>
		<polygon class="st14" points="253.5,354.3 242.8,354.5 237.3,345.3 248,345.2 		"/>
	</g>
	<g>
		<polygon class="st14" points="743.9,212.8 766,207.7 772.6,186 750.5,191.1 		"/>
		
			<linearGradient id="SVGID_3_" gradientUnits="userSpaceOnUse" x1="359.0042" y1="-3022.3123" x2="378.6312" y2="-3022.3123" gradientTransform="matrix(0.7302 -0.6832 0.6832 0.7302 2558.2803 2677.4021)">
			<stop  offset="0" style="stop-color:#685A66"/>
			<stop  offset="0.4949" style="stop-color:#715A66"/>
			<stop  offset="1" style="stop-color:#785A66"/>
		</linearGradient>
		<polygon class="st16" points="766,207.7 781.4,224.2 759.4,229.3 743.9,212.8 		"/>
		<polygon class="st13" points="772.6,186 788,202.5 781.4,224.2 766,207.7 		"/>
	</g>
</g>
</svg>
