<?xml version="1.0" encoding="utf-8"?>
<!-- Generator: Adobe Illustrator 19.1.0, SVG Export Plug-In . SVG Version: 6.00 Build 0)  -->
<svg version="1.1" id="Layer_1" xmlns="http://www.w3.org/2000/svg" xmlns:xlink="http://www.w3.org/1999/xlink" x="0px" y="0px"
	 viewBox="0 0 600 300" style="enable-background:new 0 0 600 300;" xml:space="preserve">
<style type="text/css">
	.st0{fill:#E6EAEE;}
	.st1{fill:#5D6D7E;}
	.st2{fill:#F6F8FB;}
	.st3{fill:#AAB5BD;}
</style>
<path class="st0" d="M519.5,7.6c-2.8-2.8-6.6-4.3-10.5-4.3H92.1c-3.8,0-7.6,1.4-10.5,4.3c-2.9,2.9-4.3,6.7-4.3,10.5v257.6h446.4V18
	C523.8,14.3,522.4,10.5,519.5,7.6z"/>
<g>
	<path class="st1" d="M306.8,14.6c0,3.4-2.8,6.3-6.3,6.3c-3.4,0-6.3-2.8-6.3-6.3c0-3.5,2.8-6.3,6.3-6.3
		C304,8.4,306.8,11.2,306.8,14.6z"/>
	<path class="st2" d="M303.2,14.6c0,1.5-1.2,2.7-2.7,2.7c-1.5,0-2.7-1.2-2.7-2.7c0-1.5,1.2-2.7,2.7-2.7
		C302.1,12,303.2,13.2,303.2,14.6z"/>
</g>
<path class="st3" d="M30,284c20.6,9.2,43.3,14.2,67.2,14.2h406.6c23.9,0,46.7-5,67.2-14.2H30z"/>
<rect x="30" y="275.6" class="st0" width="541.1" height="8.4"/>
<rect x="253.6" y="275.6" class="st1" width="93.9" height="4.2"/>
<rect x="100.6" y="26" class="st2" width="399.9" height="249.6"/>
</svg>
