<?xml version="1.0" standalone="no"?>
<!DOCTYPE svg PUBLIC "-//W3C//DTD SVG 20010904//EN"
 "http://www.w3.org/TR/2001/REC-SVG-20010904/DTD/svg10.dtd">
<svg version="1.0" xmlns="http://www.w3.org/2000/svg"
 width="2479.000000pt" height="542.000000pt" viewBox="0 0 2479.000000 542.000000"
 preserveAspectRatio="xMidYMid meet">
<metadata>
Created by potrace 1.12, written by Peter Selinger 2001-2015
</metadata>
<g transform="translate(0.000000,542.000000) scale(0.100000,-0.100000)"
fill="#000000" stroke="none">
<path d="M2795 5308 c-129 -134 -216 -233 -210 -240 3 -2 35 0 72 5 105 14
514 14 623 -1 229 -32 446 -95 614 -179 87 -43 256 -149 256 -161 0 -3 -53
-84 -118 -181 -336 -498 -552 -918 -691 -1343 -112 -345 -153 -585 -152 -908
0 -322 58 -621 185 -955 25 -66 46 -125 46 -132 0 -16 -295 -202 -304 -192 -2
2 -8 58 -15 124 -60 594 -308 1097 -614 1244 -159 77 -293 77 -450 -2 -66 -32
-101 -59 -178 -136 -107 -107 -177 -207 -249 -356 -90 -185 -170 -460 -204
-695 -38 -260 -47 -611 -16 -630 22 -14 212 -58 331 -77 159 -25 492 -23 674
5 669 103 1270 419 1766 929 765 785 1060 1840 763 2722 -37 108 -134 307
-200 409 -257 396 -642 668 -1118 793 -177 46 -287 60 -501 66 l-200 6 -110
-115z"/>
<path d="M2748 4909 c-667 -70 -1330 -398 -1838 -909 -498 -501 -806 -1110
-891 -1765 -17 -132 -14 -448 5 -579 78 -530 351 -974 768 -1253 98 -65 282
-163 307 -163 12 0 13 23 7 132 -8 154 7 542 30 773 104 1078 464 2118 1028
2975 92 140 335 472 354 483 9 6 259 57 279 57 9 0 -6 -24 -40 -62 -280 -323
-450 -701 -434 -971 4 -72 10 -99 33 -145 78 -151 281 -163 509 -30 271 159
499 410 710 783 127 223 257 522 233 536 -7 5 -62 24 -122 44 -125 41 -307 79
-448 94 -111 12 -375 12 -490 0z m388 -544 c51 -33 66 -72 61 -165 -6 -145
-72 -274 -207 -410 -105 -105 -174 -143 -272 -148 -66 -4 -69 -3 -102 30 -61
61 -68 150 -25 277 67 194 255 391 414 432 42 11 101 4 131 -16z"/>
<path d="M11825 3938 c-11 -32 -602 -3164 -598 -3170 2 -5 157 -8 344 -8 l339
0 8 22 c5 13 60 294 122 625 63 332 117 599 121 595 4 -4 130 -279 280 -612
149 -333 276 -611 282 -617 13 -18 747 -19 747 -2 0 9 -534 1178 -571 1250 -6
11 108 145 458 540 255 288 472 532 480 542 15 16 -3 17 -368 17 l-384 0 -455
-525 c-250 -289 -456 -522 -458 -517 -1 5 76 425 173 932 96 508 175 927 175
931 0 5 -155 9 -345 9 -268 0 -347 -3 -350 -12z"/>
<path d="M7068 3169 c-92 -12 -212 -58 -299 -114 -88 -57 -207 -176 -274 -273
-27 -41 -51 -69 -53 -63 -2 5 13 94 32 196 20 103 36 191 36 196 0 5 -135 9
-308 9 l-308 0 -224 -1177 c-123 -648 -225 -1184 -228 -1191 -3 -10 68 -12
349 -10 l354 3 67 360 c132 707 148 776 224 943 96 212 249 359 429 414 54 17
95 22 181 22 l111 0 66 335 c37 185 63 338 59 342 -13 12 -145 16 -214 8z"/>
<path d="M8305 3159 c-93 -13 -238 -52 -333 -90 -296 -118 -560 -368 -726
-689 -141 -273 -201 -525 -200 -835 0 -173 3 -199 27 -289 78 -291 243 -471
487 -532 104 -26 288 -15 410 24 160 53 293 147 375 266 21 31 40 54 42 53 2
-2 -10 -70 -27 -152 -16 -81 -30 -150 -30 -152 0 -1 151 -3 335 -3 l335 0 5
23 c15 66 256 1343 265 1402 15 109 12 334 -6 423 -59 287 -225 463 -504 532
-98 25 -340 35 -455 19z m170 -546 c108 -54 146 -159 125 -341 -13 -111 -64
-381 -87 -461 -86 -299 -282 -512 -488 -529 -120 -9 -210 60 -251 193 -24 77
-29 262 -10 371 56 322 241 639 433 742 33 17 78 36 99 41 49 12 139 4 179
-16z"/>
<path d="M10750 3159 c-630 -59 -1124 -439 -1310 -1007 -110 -337 -101 -677
25 -938 125 -259 359 -427 675 -485 115 -21 406 -16 551 10 121 21 291 71 322
94 14 10 31 77 72 297 30 156 53 286 51 287 -2 2 -39 -12 -82 -31 -171 -75
-311 -106 -474 -107 -58 0 -127 5 -155 12 -251 61 -367 295 -310 624 32 182
107 326 240 461 99 101 178 150 303 192 70 24 92 26 237 26 167 0 196 -4 313
-51 35 -14 65 -23 68 -20 8 8 111 558 105 561 -3 2 -37 13 -76 25 -146 45
-382 67 -555 50z"/>
<path d="M14575 3159 c-445 -60 -747 -300 -819 -651 -51 -248 27 -455 235
-621 81 -65 115 -86 297 -185 155 -84 216 -146 236 -239 19 -85 -54 -187 -153
-217 -160 -47 -482 14 -730 138 -50 26 -91 43 -91 39 0 -5 -23 -125 -50 -268
-38 -199 -47 -261 -37 -267 37 -26 136 -71 202 -93 372 -125 844 -105 1150 48
271 135 420 353 441 646 13 182 -40 315 -181 457 -96 96 -185 157 -381 258
-116 60 -204 128 -229 177 -8 15 -15 49 -15 74 0 77 37 126 125 167 45 21 64
23 190 22 161 0 288 -26 433 -88 56 -23 84 -31 87 -23 5 17 95 500 95 510 0
21 -156 74 -300 102 -101 20 -403 28 -505 14z"/>
<path d="M16895 3163 c-122 -19 -274 -82 -378 -157 -34 -24 -95 -78 -135 -121
-41 -42 -75 -75 -76 -73 -2 1 10 68 25 148 15 80 28 153 28 163 1 16 -20 17
-304 17 -236 0 -307 -3 -310 -12 -12 -33 -593 -3114 -589 -3120 3 -5 160 -8
349 -8 l345 0 5 23 c3 12 39 202 80 422 41 220 78 411 81 423 5 23 7 22 55
-23 105 -98 248 -140 454 -132 574 22 1066 506 1211 1191 21 98 27 159 31 316
4 173 3 207 -17 299 -41 203 -122 356 -247 471 -73 67 -189 129 -288 156 -59
16 -262 27 -320 17z m-46 -579 c69 -20 130 -81 162 -160 22 -54 24 -73 24
-229 -1 -143 -4 -185 -24 -265 -100 -411 -345 -690 -604 -690 -94 0 -172 56
-209 148 -48 122 -21 446 58 682 128 380 362 583 593 514z"/>
<path d="M19060 3155 c-305 -50 -570 -189 -774 -406 -211 -223 -362 -522 -433
-859 -24 -111 -27 -147 -28 -330 0 -245 15 -322 96 -488 90 -185 228 -299 419
-348 50 -13 94 -15 190 -12 107 4 139 10 220 37 157 53 276 135 359 248 25 34
49 62 52 62 3 1 -6 -61 -22 -136 -15 -76 -28 -144 -29 -150 0 -10 73 -13 334
-13 l335 0 10 53 c6 28 68 349 138 712 l127 660 0 195 c1 218 -9 275 -70 409
-84 184 -229 298 -447 352 -109 27 -356 34 -477 14z m201 -546 c46 -23 82 -66
104 -124 25 -65 15 -244 -24 -450 -60 -310 -130 -473 -262 -607 -103 -106
-180 -143 -296 -143 -74 0 -85 3 -124 30 -84 60 -129 183 -129 356 0 192 46
375 143 563 139 273 321 418 497 400 30 -3 71 -14 91 -25z"/>
<path d="M21530 3160 c-360 -32 -690 -177 -936 -413 -255 -243 -405 -550 -443
-909 -15 -132 -14 -215 4 -331 83 -550 521 -849 1155 -788 69 7 161 19 205 28
92 17 252 66 278 85 12 10 30 86 71 298 29 157 52 287 50 289 -2 2 -35 -10
-72 -28 -97 -44 -201 -78 -296 -96 -96 -18 -287 -21 -348 -5 -116 31 -223 119
-271 223 -101 216 -38 571 142 798 109 137 274 241 433 273 154 32 343 16 481
-39 37 -15 70 -26 72 -24 4 5 105 531 105 551 0 10 -24 22 -72 36 -160 47
-380 67 -558 52z"/>
<path d="M23195 3154 c-186 -29 -384 -108 -545 -217 -111 -76 -274 -243 -353
-362 -162 -245 -252 -521 -264 -810 -29 -690 387 -1085 1106 -1051 231 11 432
48 626 116 123 44 164 66 170 93 9 37 105 548 105 557 0 5 -52 -18 -116 -50
-224 -113 -430 -164 -674 -164 -170 -1 -227 9 -325 55 -136 63 -190 142 -219
318 l-6 34 62 -6 c84 -9 425 8 563 28 512 72 806 269 880 590 38 161 14 364
-61 505 -150 286 -525 430 -949 364z m282 -540 c58 -36 86 -88 86 -158 0 -176
-179 -254 -624 -272 l-168 -7 10 39 c47 174 193 342 350 404 113 45 268 42
346 -6z"/>
<path d="M24439 1306 c-113 -30 -206 -117 -239 -224 -24 -77 -25 -112 -5 -179
65 -217 336 -266 507 -91 61 62 88 134 88 232 0 61 -5 83 -28 127 -33 64 -93
113 -164 134 -61 18 -97 18 -159 1z m176 -55 c148 -67 180 -263 63 -396 -103
-116 -264 -137 -369 -47 -54 47 -79 101 -79 177 0 109 60 203 162 254 74 37
158 42 223 12z"/>
<path d="M24411 1138 c-6 -29 -22 -109 -34 -178 -23 -122 -23 -125 -4 -128 26
-5 28 -1 41 70 11 61 12 63 43 66 31 3 32 2 54 -67 21 -66 25 -71 52 -71 31 0
32 -6 -3 95 l-17 49 30 16 c35 19 67 73 67 113 0 18 -11 39 -29 58 -28 27 -34
29 -110 29 l-80 0 -10 -52z m167 -10 c20 -17 14 -57 -13 -83 -19 -20 -34 -25
-75 -25 -56 0 -56 0 -39 80 l11 52 52 -7 c28 -4 57 -12 64 -17z"/>
</g>
</svg>
