<?xml version="1.0" encoding="utf-8"?>
<!DOCTYPE svg PUBLIC "-//W3C//DTD SVG 1.1//EN" "http://www.w3.org/Graphics/SVG/1.1/DTD/svg11.dtd">
<svg version="1.1" id="Layer_1" xmlns="http://www.w3.org/2000/svg" xmlns:xlink="http://www.w3.org/1999/xlink" x="0px" y="0px"
	 width="154px" height="40px" viewBox="0 0 154 40">
<path fill="#333333" d="M57.154,27.548c0.107,0,0.199,0.038,0.272,0.112l0.642,0.693c-0.47,0.501-0.98,0.955-1.531,1.357
	c-0.551,0.4-1.155,0.744-1.812,1.028c-0.658,0.286-1.38,0.504-2.165,0.659c-0.787,0.156-1.649,0.232-2.591,0.232
	c-1.572,0-3.013-0.274-4.324-0.826c-1.311-0.551-2.437-1.335-3.376-2.348c-0.941-1.012-1.671-2.236-2.19-3.673
	c-0.519-1.435-0.776-3.033-0.776-4.792c0-1.726,0.268-3.3,0.803-4.726c0.534-1.425,1.28-2.651,2.244-3.673
	c0.963-1.023,2.118-1.817,3.466-2.378c1.348-0.564,2.834-0.845,4.46-0.845c1.55,0,2.924,0.241,4.122,0.722
	c1.196,0.483,2.288,1.163,3.271,2.042l-0.498,0.724c-0.086,0.13-0.218,0.193-0.399,0.193c-0.13,0-0.336-0.118-0.625-0.353
	c-0.29-0.237-0.69-0.496-1.204-0.781c-0.514-0.284-1.152-0.544-1.916-0.779c-0.766-0.236-1.683-0.354-2.751-0.354
	c-1.372,0-2.623,0.237-3.762,0.708c-1.138,0.471-2.118,1.147-2.936,2.024c-0.818,0.881-1.457,1.951-1.917,3.216
	c-0.46,1.266-0.691,2.685-0.691,4.26c0,1.607,0.234,3.045,0.7,4.309c0.464,1.265,1.103,2.333,1.916,3.207
	c0.812,0.875,1.773,1.545,2.878,2.01c1.107,0.466,2.302,0.7,3.585,0.7c0.814,0,1.538-0.055,2.176-0.163
	c0.635-0.105,1.22-0.266,1.754-0.482c0.534-0.213,1.033-0.476,1.493-0.789c0.46-0.309,0.914-0.673,1.364-1.09
	c0.052-0.044,0.105-0.078,0.158-0.106C57.048,27.562,57.102,27.548,57.154,27.548 M79.724,31.375h-1.27
	c-0.148,0-0.271-0.042-0.366-0.122c-0.098-0.078-0.172-0.182-0.226-0.312L75.2,24.333H64.051l-2.662,6.607
	c-0.041,0.119-0.118,0.22-0.226,0.306c-0.107,0.087-0.233,0.129-0.383,0.129h-1.253l9.289-22.748h1.619L79.724,31.375z
	 M64.534,23.111h10.169l-4.62-11.496c-0.16-0.375-0.317-0.825-0.466-1.349c-0.074,0.257-0.148,0.502-0.225,0.739
	c-0.074,0.235-0.149,0.445-0.224,0.625L64.534,23.111z M85.143,21.085v10.29h-1.649V8.626h5.805c2.608,0,4.563,0.506,5.863,1.52
	c1.297,1.013,1.947,2.5,1.947,4.461c0,0.868-0.152,1.662-0.458,2.379c-0.304,0.718-0.734,1.347-1.3,1.888
	c-0.562,0.542-1.238,0.986-2.034,1.333c-0.799,0.349-1.688,0.577-2.672,0.685c0.255,0.16,0.487,0.375,0.688,0.644l7.814,9.838
	h-1.412c-0.184,0-0.338-0.031-0.458-0.089c-0.124-0.059-0.238-0.166-0.346-0.331l-7.281-9.227c-0.085-0.119-0.176-0.22-0.264-0.306
	c-0.094-0.085-0.193-0.152-0.306-0.201c-0.113-0.047-0.248-0.082-0.401-0.104c-0.155-0.021-0.348-0.032-0.569-0.032L85.143,21.085
	L85.143,21.085z M85.143,19.862h3.932c1.003,0,1.906-0.118,2.7-0.361c0.797-0.24,1.472-0.586,2.021-1.036
	c0.551-0.449,0.973-0.991,1.26-1.623c0.288-0.633,0.435-1.345,0.435-2.139c0-1.618-0.526-2.82-1.581-3.602
	c-1.052-0.782-2.589-1.174-4.611-1.174h-4.154V19.862L85.143,19.862z M102.965,8.626h1.649v22.749h-1.649V8.626z M112.482,8.682
	c0.082,0.039,0.168,0.121,0.267,0.25l14.708,19.709c-0.033-0.321-0.05-0.633-0.05-0.932V8.626h1.639v22.748h-0.98
	c-0.139,0-0.253-0.024-0.344-0.074c-0.094-0.049-0.18-0.131-0.265-0.249l-14.742-19.725c0.034,0.321,0.048,0.623,0.048,0.9v19.147
	h-1.65V8.626h1.025C112.288,8.626,112.403,8.646,112.482,8.682 M152.797,31.375h-1.267c-0.15,0-0.272-0.042-0.369-0.122
	c-0.097-0.078-0.168-0.182-0.226-0.312l-2.662-6.607h-11.146l-2.663,6.607c-0.041,0.119-0.118,0.221-0.225,0.306
	c-0.105,0.087-0.235,0.129-0.384,0.129h-1.252l9.286-22.749h1.619L152.797,31.375z M137.607,23.111h10.168l-4.619-11.496
	c-0.158-0.375-0.314-0.825-0.466-1.349c-0.072,0.257-0.147,0.502-0.223,0.739c-0.074,0.235-0.15,0.445-0.224,0.625L137.607,23.111z
	 M150.19,8.626v0.302h-1.016v2.651h-0.367V8.928h-1.031V8.626H150.19z M152.425,10.707c0.016-0.056,0.04-0.105,0.067-0.148
	l1.092-1.872c0.019-0.027,0.033-0.042,0.048-0.052c0.014-0.007,0.041-0.009,0.073-0.009H154v2.954h-0.317V9.304l0.023-0.225
	l-1.122,1.95c-0.025,0.056-0.072,0.084-0.127,0.084h-0.057c-0.062,0-0.102-0.028-0.13-0.084l-1.14-1.94l0.026,0.215v2.276h-0.324
	V8.626h0.292c0.033,0,0.059,0.002,0.073,0.009c0.017,0.01,0.037,0.024,0.06,0.052l1.112,1.872L152.425,10.707z"/>
<path fill="#666666" d="M41.741,39.946v-4.685h1.436c0.276,0,0.515,0.028,0.716,0.084c0.196,0.056,0.362,0.137,0.489,0.242
	c0.129,0.105,0.224,0.232,0.284,0.384c0.061,0.152,0.092,0.322,0.092,0.511c0,0.116-0.019,0.229-0.054,0.334
	c-0.032,0.107-0.083,0.207-0.154,0.297c-0.067,0.09-0.154,0.174-0.261,0.246c-0.106,0.071-0.231,0.131-0.373,0.175
	c0.331,0.069,0.575,0.191,0.743,0.37c0.168,0.18,0.252,0.414,0.252,0.707c0,0.198-0.035,0.378-0.106,0.542
	c-0.067,0.163-0.172,0.304-0.307,0.421c-0.136,0.117-0.302,0.209-0.498,0.274c-0.194,0.063-0.421,0.095-0.673,0.095h-1.586V39.946z
	 M42.348,37.361h0.803c0.171,0,0.321-0.02,0.446-0.059c0.127-0.04,0.233-0.093,0.315-0.164c0.083-0.07,0.143-0.155,0.183-0.255
	c0.039-0.099,0.061-0.206,0.061-0.325c0-0.277-0.079-0.479-0.239-0.606c-0.16-0.127-0.405-0.192-0.739-0.192h-0.829V37.361
	L42.348,37.361z M42.348,37.811v1.631h0.974c0.173,0,0.323-0.021,0.448-0.062c0.126-0.042,0.227-0.099,0.309-0.176
	c0.082-0.074,0.14-0.165,0.178-0.268c0.039-0.104,0.055-0.218,0.055-0.342c0-0.24-0.082-0.433-0.246-0.572
	c-0.164-0.141-0.415-0.212-0.743-0.212H42.348z M48.003,38.079v1.868h-0.606v-1.868l-1.65-2.817h0.534
	c0.055,0,0.098,0.014,0.129,0.041c0.032,0.027,0.057,0.063,0.082,0.105l1.028,1.821c0.039,0.077,0.071,0.148,0.103,0.214
	c0.03,0.066,0.059,0.132,0.079,0.199c0.023-0.066,0.051-0.133,0.08-0.199c0.028-0.066,0.062-0.139,0.1-0.214l1.025-1.821
	c0.02-0.038,0.045-0.069,0.08-0.1c0.032-0.032,0.074-0.046,0.13-0.046h0.535L48.003,38.079z M53.514,37.992v1.955h-0.604v-4.685
	h1.272c0.284,0,0.53,0.03,0.739,0.088c0.205,0.062,0.377,0.146,0.512,0.26s0.233,0.25,0.3,0.411c0.065,0.16,0.098,0.34,0.098,0.539
	c0,0.165-0.026,0.32-0.075,0.463c-0.051,0.145-0.125,0.274-0.219,0.389c-0.096,0.114-0.213,0.211-0.348,0.293
	c-0.14,0.082-0.293,0.143-0.465,0.183c0.077,0.052,0.146,0.117,0.199,0.199l1.312,1.859h-0.542c-0.108,0-0.189-0.043-0.243-0.133
	l-1.169-1.674c-0.035-0.052-0.072-0.088-0.112-0.114c-0.041-0.023-0.104-0.033-0.19-0.033H53.514z M53.514,37.529h0.642
	c0.178,0,0.333-0.021,0.468-0.067c0.134-0.043,0.246-0.107,0.339-0.188c0.09-0.083,0.157-0.179,0.204-0.293
	c0.047-0.112,0.07-0.238,0.07-0.376c0-0.279-0.087-0.489-0.265-0.631c-0.176-0.14-0.438-0.212-0.79-0.212h-0.668V37.529
	L53.514,37.529z M61.159,39.946h-0.472c-0.054,0-0.099-0.014-0.131-0.042c-0.034-0.028-0.058-0.063-0.076-0.108l-0.421-1.131h-2.016
	l-0.421,1.131c-0.014,0.04-0.039,0.074-0.073,0.104c-0.036,0.031-0.079,0.046-0.132,0.046h-0.471l1.801-4.685h0.613L61.159,39.946z
	 M58.211,38.208h1.68l-0.706-1.907c-0.023-0.057-0.047-0.121-0.069-0.197c-0.021-0.073-0.041-0.153-0.066-0.239
	c-0.021,0.086-0.041,0.165-0.063,0.24c-0.021,0.075-0.044,0.141-0.067,0.199L58.211,38.208z M65.451,38.979
	c0.035,0,0.063,0.014,0.087,0.043l0.242,0.271c-0.184,0.223-0.405,0.397-0.669,0.521c-0.263,0.125-0.582,0.185-0.953,0.185
	c-0.322,0-0.614-0.058-0.879-0.175c-0.263-0.117-0.488-0.28-0.673-0.489c-0.186-0.211-0.331-0.463-0.435-0.758
	c-0.101-0.294-0.151-0.618-0.151-0.971c0-0.353,0.052-0.677,0.158-0.97c0.106-0.294,0.258-0.548,0.451-0.759
	c0.193-0.211,0.426-0.375,0.693-0.492c0.271-0.116,0.569-0.175,0.896-0.175c0.318,0,0.603,0.053,0.847,0.161
	c0.245,0.107,0.459,0.252,0.645,0.434l-0.198,0.292c-0.014,0.021-0.03,0.04-0.051,0.053c-0.02,0.014-0.046,0.021-0.079,0.021
	c-0.038,0-0.082-0.021-0.138-0.063c-0.055-0.042-0.125-0.09-0.215-0.141c-0.088-0.053-0.197-0.101-0.33-0.142
	c-0.132-0.043-0.293-0.064-0.485-0.064c-0.234,0-0.447,0.042-0.639,0.125c-0.191,0.085-0.359,0.206-0.496,0.365
	c-0.14,0.159-0.247,0.354-0.324,0.582s-0.116,0.488-0.116,0.774c0,0.293,0.039,0.553,0.12,0.783c0.08,0.228,0.189,0.421,0.33,0.581
	c0.139,0.157,0.303,0.277,0.492,0.36c0.188,0.084,0.393,0.124,0.613,0.124c0.134,0,0.253-0.007,0.363-0.024
	c0.108-0.015,0.207-0.042,0.297-0.076c0.092-0.035,0.175-0.079,0.254-0.132c0.081-0.053,0.158-0.117,0.234-0.191
	C65.381,38.995,65.416,38.979,65.451,38.979 M67.755,37.315h0.229c0.08,0,0.142-0.011,0.189-0.031
	c0.048-0.022,0.092-0.057,0.133-0.106l1.498-1.766c0.04-0.056,0.085-0.097,0.13-0.117c0.047-0.023,0.104-0.033,0.171-0.033h0.515
	l-1.714,2.018c-0.042,0.051-0.083,0.095-0.122,0.129c-0.036,0.033-0.08,0.061-0.122,0.083c0.058,0.019,0.106,0.048,0.153,0.085
	c0.046,0.039,0.091,0.088,0.136,0.149l1.788,2.221h-0.525c-0.041,0-0.076-0.005-0.102-0.01c-0.03-0.005-0.055-0.014-0.075-0.025
	c-0.022-0.013-0.039-0.026-0.058-0.043c-0.013-0.017-0.028-0.036-0.043-0.057l-1.551-1.862c-0.043-0.054-0.087-0.091-0.137-0.114
	c-0.045-0.024-0.12-0.036-0.217-0.036h-0.276v2.147h-0.607v-4.686h0.607V37.315L67.755,37.315z M74.266,35.992
	c-0.017,0.035-0.039,0.06-0.062,0.076c-0.021,0.016-0.048,0.024-0.079,0.024c-0.035,0-0.075-0.018-0.124-0.057
	c-0.049-0.038-0.109-0.077-0.181-0.122c-0.074-0.044-0.161-0.086-0.263-0.124c-0.102-0.038-0.224-0.054-0.366-0.054
	c-0.138,0-0.258,0.018-0.361,0.056c-0.103,0.039-0.189,0.092-0.261,0.157c-0.069,0.066-0.123,0.141-0.158,0.232
	c-0.036,0.085-0.053,0.183-0.053,0.285c0,0.13,0.03,0.239,0.091,0.324c0.063,0.085,0.145,0.161,0.246,0.221
	c0.101,0.061,0.215,0.114,0.345,0.159c0.125,0.044,0.262,0.091,0.396,0.139c0.134,0.049,0.264,0.102,0.394,0.164
	c0.129,0.06,0.243,0.135,0.345,0.227c0.103,0.09,0.185,0.203,0.245,0.336c0.062,0.134,0.094,0.297,0.094,0.49
	c0,0.207-0.034,0.398-0.102,0.577c-0.066,0.183-0.166,0.338-0.294,0.47c-0.128,0.133-0.285,0.238-0.473,0.313
	C73.455,39.961,73.246,40,73.003,40c-0.291,0-0.558-0.056-0.796-0.167c-0.238-0.108-0.442-0.258-0.611-0.446l0.176-0.301
	c0.017-0.024,0.036-0.044,0.062-0.06c0.025-0.016,0.052-0.024,0.08-0.024c0.026,0,0.059,0.011,0.093,0.033
	c0.036,0.023,0.073,0.051,0.117,0.088c0.043,0.033,0.094,0.071,0.148,0.114c0.059,0.043,0.122,0.08,0.195,0.114
	c0.072,0.036,0.157,0.063,0.246,0.086c0.09,0.023,0.195,0.036,0.312,0.036c0.143,0,0.271-0.021,0.385-0.063
	c0.112-0.041,0.21-0.1,0.287-0.176c0.077-0.074,0.139-0.164,0.18-0.268c0.042-0.106,0.065-0.221,0.065-0.349
	c0-0.141-0.032-0.26-0.094-0.348c-0.062-0.09-0.142-0.167-0.241-0.229c-0.103-0.062-0.217-0.113-0.346-0.154
	c-0.13-0.044-0.263-0.087-0.396-0.133c-0.134-0.043-0.267-0.095-0.394-0.154c-0.133-0.059-0.245-0.135-0.347-0.229
	c-0.101-0.093-0.182-0.211-0.243-0.351c-0.062-0.142-0.091-0.314-0.091-0.522c0-0.165,0.028-0.325,0.091-0.48
	c0.062-0.156,0.15-0.291,0.269-0.411c0.12-0.121,0.267-0.217,0.437-0.289c0.173-0.072,0.372-0.107,0.597-0.107
	c0.252,0,0.479,0.041,0.686,0.124c0.204,0.082,0.389,0.202,0.544,0.359L74.266,35.992z M76.637,38.195v1.753h-0.608v-4.686h1.329
	c0.285,0,0.531,0.034,0.742,0.102c0.212,0.07,0.386,0.167,0.524,0.294c0.137,0.125,0.238,0.279,0.307,0.457
	c0.069,0.178,0.103,0.379,0.103,0.599c0,0.217-0.035,0.416-0.109,0.598c-0.073,0.182-0.179,0.337-0.323,0.466
	c-0.14,0.13-0.313,0.233-0.521,0.306c-0.21,0.074-0.448,0.111-0.722,0.111L76.637,38.195L76.637,38.195z M76.637,37.691h0.721
	c0.173,0,0.329-0.025,0.46-0.071c0.133-0.049,0.246-0.116,0.336-0.201c0.09-0.088,0.159-0.19,0.206-0.311
	c0.045-0.12,0.067-0.251,0.067-0.396c0-0.298-0.087-0.532-0.264-0.699c-0.178-0.168-0.445-0.253-0.806-0.253h-0.721V37.691
	L76.637,37.691z M83.801,39.946h-0.47c-0.058,0-0.099-0.014-0.131-0.042c-0.033-0.028-0.059-0.063-0.076-0.108l-0.421-1.131h-2.019
	l-0.419,1.131c-0.014,0.04-0.037,0.074-0.074,0.104c-0.035,0.031-0.079,0.046-0.132,0.046h-0.47l1.802-4.685h0.611L83.801,39.946z
	 M80.856,38.208h1.676l-0.707-1.907c-0.021-0.057-0.043-0.121-0.067-0.197c-0.021-0.073-0.042-0.153-0.066-0.239
	c-0.021,0.086-0.041,0.165-0.063,0.24c-0.021,0.075-0.044,0.141-0.067,0.199L80.856,38.208z M88.095,38.979
	c0.034,0,0.062,0.014,0.089,0.043l0.24,0.271c-0.184,0.223-0.408,0.397-0.669,0.521c-0.263,0.125-0.581,0.185-0.954,0.185
	c-0.322,0-0.613-0.058-0.878-0.175c-0.263-0.117-0.487-0.28-0.674-0.489c-0.188-0.211-0.33-0.463-0.435-0.758
	c-0.103-0.294-0.154-0.618-0.154-0.971c0-0.353,0.056-0.677,0.161-0.97c0.108-0.294,0.257-0.548,0.45-0.759
	c0.194-0.211,0.428-0.375,0.696-0.492c0.27-0.116,0.565-0.175,0.896-0.175c0.317,0,0.599,0.053,0.846,0.161
	c0.244,0.107,0.46,0.252,0.646,0.434l-0.201,0.292c-0.012,0.021-0.03,0.04-0.049,0.053c-0.02,0.014-0.047,0.021-0.081,0.021
	c-0.035,0-0.08-0.021-0.137-0.063c-0.053-0.042-0.124-0.09-0.212-0.141c-0.089-0.053-0.199-0.101-0.332-0.142
	c-0.132-0.043-0.293-0.064-0.486-0.064c-0.232,0-0.444,0.042-0.639,0.125c-0.191,0.085-0.357,0.206-0.496,0.365
	c-0.14,0.159-0.246,0.354-0.325,0.582c-0.078,0.229-0.115,0.488-0.115,0.774c0,0.293,0.04,0.553,0.12,0.783
	c0.081,0.228,0.191,0.421,0.329,0.581c0.139,0.157,0.304,0.277,0.494,0.36c0.188,0.084,0.394,0.124,0.612,0.124
	c0.136,0,0.257-0.007,0.364-0.024c0.107-0.015,0.206-0.042,0.297-0.076c0.092-0.035,0.177-0.079,0.255-0.132
	c0.081-0.053,0.157-0.117,0.235-0.191C88.023,38.995,88.06,38.979,88.095,38.979 M92.562,35.262v0.515H90.4v1.556h1.75v0.498H90.4
	v1.599h2.163l-0.002,0.519H89.79v-4.686H92.562z M93.421,36.014c0-0.074,0.011-0.146,0.03-0.214
	c0.017-0.068,0.043-0.134,0.076-0.192c0.034-0.061,0.074-0.115,0.121-0.164c0.047-0.049,0.099-0.092,0.157-0.126
	c0.056-0.037,0.117-0.064,0.184-0.083c0.064-0.018,0.132-0.028,0.203-0.028c0.07,0,0.141,0.01,0.206,0.028
	c0.066,0.019,0.127,0.046,0.185,0.083c0.058,0.034,0.108,0.077,0.155,0.126c0.047,0.048,0.09,0.103,0.121,0.164
	c0.032,0.059,0.059,0.124,0.078,0.192c0.02,0.066,0.027,0.138,0.027,0.214c0,0.073-0.008,0.144-0.027,0.212
	c-0.02,0.069-0.046,0.134-0.078,0.193c-0.031,0.059-0.074,0.113-0.121,0.161c-0.047,0.049-0.098,0.092-0.155,0.126
	c-0.058,0.035-0.118,0.062-0.185,0.082c-0.065,0.018-0.136,0.028-0.206,0.028c-0.071,0-0.139-0.01-0.203-0.028
	c-0.066-0.02-0.128-0.047-0.184-0.082c-0.059-0.034-0.11-0.077-0.157-0.126c-0.047-0.048-0.087-0.102-0.121-0.161
	c-0.033-0.059-0.06-0.124-0.076-0.193C93.432,36.158,93.421,36.087,93.421,36.014 M93.53,36.014c0,0.064,0.008,0.126,0.023,0.188
	c0.013,0.06,0.035,0.117,0.064,0.169c0.029,0.051,0.062,0.099,0.104,0.142c0.04,0.042,0.085,0.079,0.134,0.109
	c0.05,0.03,0.104,0.054,0.159,0.07c0.058,0.016,0.116,0.024,0.178,0.024c0.064,0,0.122-0.008,0.181-0.024
	c0.057-0.016,0.109-0.04,0.159-0.07c0.051-0.031,0.094-0.066,0.138-0.109c0.039-0.043,0.072-0.091,0.103-0.142
	c0.029-0.053,0.049-0.109,0.064-0.169c0.016-0.062,0.024-0.123,0.024-0.188c0-0.099-0.017-0.191-0.052-0.277
	c-0.033-0.085-0.082-0.161-0.14-0.224c-0.062-0.066-0.133-0.115-0.216-0.152c-0.081-0.038-0.168-0.056-0.262-0.056
	c-0.062,0-0.12,0.008-0.178,0.025c-0.056,0.017-0.109,0.04-0.159,0.071c-0.049,0.028-0.093,0.065-0.134,0.11
	c-0.041,0.043-0.074,0.092-0.104,0.144c-0.029,0.051-0.052,0.108-0.064,0.169C93.538,35.885,93.53,35.948,93.53,36.014
	 M94.042,36.112v0.391H93.88v-0.98h0.302c0.12,0,0.21,0.023,0.269,0.068c0.059,0.046,0.087,0.114,0.087,0.203
	c0,0.068-0.017,0.128-0.055,0.176c-0.039,0.047-0.094,0.082-0.168,0.099c0.012,0.008,0.02,0.017,0.033,0.027
	c0.006,0.012,0.016,0.023,0.021,0.039l0.241,0.367h-0.156c-0.024,0-0.043-0.009-0.052-0.028l-0.213-0.331
	c-0.008-0.009-0.015-0.017-0.022-0.022c-0.011-0.004-0.023-0.008-0.04-0.008H94.042L94.042,36.112z M94.042,35.987h0.121
	c0.078,0,0.134-0.014,0.165-0.044c0.032-0.03,0.048-0.072,0.048-0.129c0-0.027-0.003-0.051-0.012-0.07
	c-0.004-0.021-0.017-0.037-0.033-0.052c-0.014-0.012-0.035-0.022-0.061-0.028c-0.023-0.007-0.056-0.01-0.091-0.01h-0.139
	L94.042,35.987L94.042,35.987z"/>
<g>
	<polygon fill="#B7DCD8" points="8.82,24.41 8.82,15.59 0,10.503 0,29.497 	"/>
	<polygon fill="#9DAEBA" points="25.874,25.435 18.224,29.826 18.224,40 34.692,30.521 	"/>
	<polygon fill="#785A66" points="0.586,30.521 17.054,40 17.054,29.826 9.405,25.435 	"/>
	<polygon fill="#5D6D7E" points="25.874,14.566 18.224,10.174 18.224,0 34.692,9.479 	"/>
	<polygon fill="#DADFE1" points="0.586,9.479 17.054,0 17.054,10.174 9.405,14.566 	"/>
</g>
</svg>
