<?xml version="1.0" encoding="utf-8"?>
<!-- Generator: Adobe Illustrator 18.1.1, SVG Export Plug-In . SVG Version: 6.00 Build 0)  -->
<!DOCTYPE svg PUBLIC "-//W3C//DTD SVG 1.1//EN" "http://www.w3.org/Graphics/SVG/1.1/DTD/svg11.dtd">
<svg version="1.1" id="Layer_1" xmlns="http://www.w3.org/2000/svg" xmlns:xlink="http://www.w3.org/1999/xlink" x="0px" y="0px"
	 viewBox="-423.7 955.8 297.5 65" enable-background="new -423.7 955.8 297.5 65" xml:space="preserve">
<g>
	<g>
		<path fill="#404040" d="M-392.3,972.6c-1.2,2.5-0.7,4.5,1.1,4.6c1.8,0,4.2-2,5.3-4.5c1.2-2.5,0.7-4.5-1.1-4.6
			C-388.7,968.2-391.1,970.2-392.3,972.6z M-377.9,963.6C-377.9,963.6-377.9,963.7-377.9,963.6
			C-377.9,963.7-377.9,963.7-377.9,963.6c-1,3-2.8,6.4-4.5,9c-3.7,5.4-8.9,8.9-11.7,7.6c-2.8-1.2-2.1-6.6,1.5-12
			c0.8-1.2,1.7-2.3,2.7-3.3c0,0,0,0,0,0c0,0,0,0,0,0c0,0,0,0,0,0c-1.1,0.2-2.3,0.4-3.5,0.7c0,0,0,0,0,0
			c-12.3,15.1-17.6,34.8-16.9,52.4l0,0c0,0,0,0,0,0c0,0,0,0,0,0c-7.3-2.9-12.6-10-13.2-18.9l0-0.1c-0.9-15.8,11.7-32.1,28.2-36.3
			C-389,961.2-383,961.6-377.9,963.6z"/>
		<path fill="#404040" d="M-382.6,1006.4c-1.2,0.8-2.5,1.6-3.7,2.3c0,0,0,0,0,0c0,0,0,0,0,0c-0.2-3.8-1.1-7.5-2.5-10.6
			c-3.8-8.2-10.4-8.8-14.7-1.4c-2.7,4.5-3.9,11-3.6,17.3c0,0,0,0,0,0c4.6,1.5,10,1.6,15.7,0.2c16.5-4.2,29.1-20.4,28.2-36.2
			c-0.8-13.9-11.8-22.9-25.6-22.1c0,0,0,0,0,0c-1.3,1.4-2.6,2.7-3.8,4.1c0,0,0,0,0,0c0,0,0,0,0,0c0,0,0,0,0,0c8.1-1,14.6,0.6,18.8,4
			c0,0,0,0,0,0c0,0,0,0,0,0C-388.4,984.7-386.6,996.4-382.6,1006.4C-382.6,1006.3-382.6,1006.3-382.6,1006.4
			C-382.6,1006.4-382.6,1006.4-382.6,1006.4z"/>
	</g>
	<g>
		<path fill="#404040" d="M-246.4,982.8c3.4,0,6,0.8,7.2,1.4c0,0,0,0,0,0l-1.2,6.2c0,0,0,0,0,0c0,0,0,0,0,0
			c-1.4-0.8-3.8-1.6-6.4-1.6c-2.2,0-3.6,0.9-3.6,2.4c0,1.1,1.1,2.1,3.4,3.2c3,1.5,6.4,3.7,6.4,7.7c0,2.6-0.9,4.8-2.6,6.5
			c-2.3,2.3-6,3.5-10.4,3.5c-3.4-0.1-6.9-0.9-8.6-2.2c0,0,0,0,0,0l1.2-6.3c0,0,0,0,0,0c0,0,0,0,0,0c1.9,1.2,5.5,2.4,8.2,2.4
			c2.1,0,3.5-1,3.5-2.5c0-1.4-1-2.4-3.5-3.6c-4-2-6-4.5-6-7.5C-258.8,986.8-253.8,982.8-246.4,982.8z"/>
		<path fill="#404040" d="M-292.9,982.9c2.1,0,4.3,0.4,5.8,1c0,0,0,0,0,0l-1.3,6.7c0,0,0,0,0,0c0,0,0,0,0,0
			c-1.3-0.7-2.8-1.1-4.6-1.1c-6,0-9.5,5.2-9.5,10.2c0,4.3,2.8,5.8,5.5,5.8c2.4,0,4.4-0.5,6.9-1.8c0,0,0,0,0,0c0,0,0,0,0,0l-1.3,6.9
			c0,0,0,0,0,0c-1.9,0.9-4.9,1.5-8,1.5c-7.2,0-11.9-4.5-11.9-11.6C-311.3,990.6-303.4,982.9-292.9,982.9z"/>
		<path fill="#404040" d="M-326.8,990.9c-2.3,2.3-3.9,6.5-3.9,9.8c0,3,1.1,4.8,3,4.8c3,0,5.7-3.2,6.6-7.9c0.2-1,0.4-2.1,0.6-3
			c0.1-0.9,0.2-1.8,0.2-2.4c-0.1-2-1.1-3.1-3-3.1C-324.5,989.2-325.7,989.8-326.8,990.9z M-323.7,1011.7
			C-323.7,1011.7-323.7,1011.7-323.7,1011.7l0.2-1.3c0.2-1.1,1.1-2.7,1.5-3.2l0.1-0.1c0.1-0.3-0.1-0.6-0.3-0.7
			c-0.3-0.1-0.6,0-0.7,0.2l0,0.1c-0.1,0.6-0.5,2-1.8,3.2c-1.6,1.5-3.9,2.4-6.4,2.4c-5.6,0-8.1-4.9-8.1-9.9c0-5.6,2.2-11.2,5.9-14.9
			c3.1-3.1,7.1-4.7,11.6-4.7c3.4,0,5.9,1,7.5,2.9c2.3,2.8,2.1,7.1,1.6,10.2l-3,15.8c0,0,0,0,0,0L-323.7,1011.7
			C-323.7,1011.7-323.7,1011.7-323.7,1011.7z"/>
		<path fill="#404040" d="M-226.8,1006c4.4,0,7.6-6.2,7.6-11.8c0-1.3-0.3-4.6-3.4-4.6c-3.1,0-5.8,3.6-6.8,8.9
			C-229.7,1000.4-230.6,1006-226.8,1006z M-219.6,982.8c5.5,0,9.1,4.2,9.1,10.8c0,6.9-3.3,13.9-9.2,17.1c-4.6,2.5-8.8,1.9-10.9,0.3
			c-0.5-0.4-0.6-1.4-0.7-1.8l0-0.1c-0.1-0.3-0.4-0.4-0.7-0.3c-0.2,0.1-0.4,0.4-0.3,0.6l0,0.1c0.4,0.7,0.7,1.2,0.6,1.8l-1.8,9.5
			c0,0,0,0,0,0h-8.3c0,0,0,0,0,0c0,0,0,0,0,0l7.1-37.5c0,0,0,0,0,0l7.3,0c0,0,0,0,0,0c0,0,0,0,0,0l-0.2,1.3l0,0
			c-0.4,2-1,2.8-1.4,3.3l-0.1,0.1c-0.1,0.3,0,0.5,0.2,0.7c0.2,0.1,0.6,0.1,0.7-0.1l0-0.1c0.2-0.6,0.7-2,1.8-3l0,0
			C-224.3,983.7-222,982.8-219.6,982.8z"/>
		<path fill="#404040" d="M-281.7,973.5h8.2c0,0,0,0,0,0c0,0,0,0,0,0l-4.3,22.6c0,0,0,0,0,0c0,0,0,0,0,0l11.1-12.8c0,0,0,0,0,0h9
			c0,0,0,0,0,0c0,0,0,0,0,0c0,0,0,0,0,0l-11.5,12.9l7,15.2c0,0,0,0,0,0c0,0,0,0,0,0c0,0,0,0,0,0h-8.9c0,0,0,0,0,0l-6.8-15
			c0,0,0,0,0,0c0,0,0,0,0,0l-2.9,15c0,0,0,0,0,0h-8.2c0,0,0,0,0,0c0,0,0,0,0,0L-281.7,973.5C-281.8,973.5-281.8,973.5-281.7,973.5z"
			/>
		<path fill="#404040" d="M-337.8,982.8c0.5,0,1.1,0.1,1.6,0.1c0,0,0,0,0,0c0,0,0,0,0,0l-1.6,8.1c0,0,0,0,0,0c0,0,0,0,0,0
			c-0.3-0.1-0.8-0.1-1.3-0.1c-5.7,0-7.9,5.6-8.8,10.2l-2,10.8c0,0,0,0,0,0h-8.3c0,0,0,0,0,0c0,0,0,0,0,0l5.4-28.5c0,0,0,0,0,0h7.3
			c0,0,0,0,0,0c0,0,0,0,0,0l-0.4,1.9l0,0c-0.3,1.8-0.9,2.9-1.3,3.4l-0.1,0.1c-0.1,0.3,0.1,0.6,0.3,0.7c0.2,0.1,0.6,0.1,0.7-0.2
			l0-0.1c0.2-0.6,0.5-1.9,1.6-3.2C-342.7,983.9-340.4,982.8-337.8,982.8z"/>
		<path fill="#404040" d="M-140.9,991.3c0-1.5-1.2-2.4-3-2.4c-2.8,0-4.8,1.8-5.9,3.8c-0.8,1.5-1,1.6-1.8,2.1l-0.1,0.1
			c-0.2,0.2-0.2,0.5,0,0.7c0.2,0.2,0.5,0.3,0.7,0.1l0.1-0.1c0.6-0.7,0.7-0.9,2.9-1c3.4-0.1,5.4-0.6,6.4-1.6
			C-141.1,992.6-140.9,992-140.9,991.3z M-152.5,1000.1c0.8,0.7,1.3,1.7,1.4,2c0.1,0.5,0.4,1.1,0.7,1.5c1.1,1.4,3,2.1,5.4,2.1
			c3.5,0,6.5-0.8,9.8-2.7c0,0,0,0,0,0c0,0,0,0,0,0l-1.3,6.9c0,0,0,0,0,0c-4,2-8.7,2.3-10.5,2.3c-7.8,0-12.3-4.3-12.3-11.9
			c0-4.4,1.6-8.7,4.4-12c3.1-3.6,7.3-5.6,12.1-5.6c5.9,0,9.8,3.4,9.8,8.5c0,2.3-0.8,4.3-2.3,5.8c-2.5,2.5-7.1,3.7-14,3.8
			c-1.6,0-2-0.8-2.3-1.4l-0.1-0.1c-0.2-0.2-0.5-0.2-0.7,0C-152.6,999.5-152.7,999.8-152.5,1000.1L-152.5,1000.1z"/>
		<path fill="#404040" d="M-133,1008.8c-0.2,1.7,1.1,3.1,2.8,3.1c1.8,0,3.3-1.4,3.5-3.2c0.2-1.7-1.1-3.1-2.8-3.1
			C-131.3,1005.6-132.8,1007-133,1008.8z M-133.5,1008.7c0.2-2,2-3.7,4-3.7c2,0,3.5,1.6,3.3,3.7c-0.2,2-2,3.7-4,3.7
			S-133.7,1010.7-133.5,1008.7z M-130.6,1006.6C-130.6,1006.6-130.6,1006.5-130.6,1006.6l0.9,0l0,0c0.2,0,0.4,0,0.5,0
			c0.2,0,0.3,0,0.4,0.1c0.5,0.2,0.7,0.5,0.7,1c0,0.1,0,0.2,0,0.2c-0.1,0.6-0.5,1-1.1,1.2l0.6,1.7c0,0,0,0,0,0s0,0,0,0c0,0,0,0,0,0
			h-0.6c0,0,0,0,0,0l-0.6-1.6l-0.4,0h0h-0.4l-0.3,1.6c0,0,0,0,0,0h-0.5c0,0,0,0,0,0c0,0,0,0,0,0l0.3-1.7l0,0l0.2-1.3L-130.6,1006.6z
			 M-129.8,1007.1h-0.4l-0.1,0.8l-0.2,0.8h0.4h0c0.2,0,0.3,0,0.4,0c0.1,0,0.2,0,0.3-0.1c0.4-0.1,0.6-0.4,0.7-0.7
			c0.1-0.4-0.1-0.6-0.4-0.7c-0.1,0-0.2,0-0.3-0.1C-129.4,1007.1-129.6,1007.1-129.8,1007.1L-129.8,1007.1z"/>
		<path fill="#404040" d="M-163.6,982.9c2.1,0,4.3,0.4,5.8,1c0,0,0,0,0,0l-1.3,6.7c0,0,0,0,0,0c0,0,0,0,0,0
			c-1.3-0.7-2.8-1.1-4.6-1.1c-6,0-9.5,5.2-9.5,10.2c0,4.3,2.8,5.8,5.5,5.8c2.4,0,4.4-0.5,6.9-1.8c0,0,0,0,0,0c0,0,0,0,0,0l-1.3,6.9
			c0,0,0,0,0,0c-1.9,0.9-4.9,1.5-8,1.5c-7.2,0-11.9-4.5-11.9-11.6C-182,990.6-174.1,982.9-163.6,982.9z"/>
		<path fill="#404040" d="M-197.5,990.9c-2.3,2.3-3.9,6.5-3.9,9.8c0,3,1.1,4.8,3,4.8c3,0,5.7-3.2,6.6-7.9c0.2-1,0.4-2.1,0.6-3
			c0.1-0.9,0.2-1.8,0.2-2.4c-0.1-2-1.1-3.1-3-3.1C-195.2,989.2-196.4,989.8-197.5,990.9z M-194.4,1011.7
			C-194.4,1011.7-194.4,1011.7-194.4,1011.7l0.2-1.3c0.2-1.1,1.1-2.7,1.5-3.2l0.1-0.1c0.1-0.3-0.1-0.6-0.3-0.7
			c-0.3-0.1-0.6,0-0.7,0.2l0,0.1c-0.1,0.6-0.5,2-1.8,3.2c-1.6,1.5-3.9,2.4-6.4,2.4c-5.6,0-8.1-4.9-8.1-9.9c0-5.6,2.2-11.2,5.9-14.9
			c3.1-3.1,7.1-4.7,11.6-4.7c3.4,0,5.9,1,7.5,2.9c2.3,2.8,2.1,7.1,1.6,10.2l-3,15.8c0,0,0,0,0,0L-194.4,1011.7
			C-194.3,1011.7-194.4,1011.7-194.4,1011.7z"/>
	</g>
</g>
</svg>
