<svg xmlns="http://www.w3.org/2000/svg" width="600" height="130.995" viewBox="0 0 600 130.995"><path fill="#fff" d="M398.17929,59.62252a20.65255,20.65255,0,0,1,13.3971-5.1511c11.1785,0,18.4287,8.47458,18.4287,21.6917,0,13.8514-6.6456,28.0657-18.6397,34.4545-9.3051,4.9697-17.7649,3.853-21.9631.59-1.1539-.8967-1.2214-3.2792-1.40429-3.853a1.07008,1.07008,0,0,0-1.38961-.6033,1.08352,1.08352,0,0,0-.5902,1.4648c.7655,1.3773,1.3455,2.462,1.1329,3.5801l-3.6236,19.19878h-16.9092L381.013,55.287h14.889l-.50331,2.74982c-.9473,4.9591-2.6449,6.3447-2.9311,6.8578a1.00846,1.00846,0,0,0,.45441,1.3291,1.12681,1.12681,0,0,0,1.46469-.2714C394.68909,65.439,395.48039,61.937,398.17929,59.62252ZM391.969,86.29872c-.70821,3.7304-2.67291,14.89428,5.07739,14.89428,8.895,0,15.4061-12.61378,15.4061-23.73028,0-2.6891-.61949-9.2151-6.8268-9.2151C399.34169,68.24762,394.02539,75.42262,391.969,86.29872ZM159.3788,61.04312c3.9126-4.3208,8.6404-6.6469,13.7459-6.6322a18.96187,18.96187,0,0,1,3.1272.2567l-3.2784,16.5552a13.73124,13.73124,0,0,0-2.6434-.2565c-11.4794,0-15.9506,11.2078-17.7029,20.4981l-4.0749,21.8571H131.6409l10.9675-57.642h14.8822l-.7552,4.00348a17.81262,17.81262,0,0,1-2.6737,7.05412,1.11093,1.11093,0,0,0,1.9944.92188A15.90052,15.90052,0,0,1,159.3788,61.04312Zm143.5364-25.4075-8.7356,45.9238L316.666,55.63532h18.462l-23.29071,26.238,14.1754,30.7475-18.1591.0059L294.10839,82.125l-5.8018,30.50172h-16.7883l14.6448-76.9911ZM60.8309,19.72782c-24.9578,30.5913-35.5576,70.3328-34.0667,105.7679-14.7477-5.8914-25.53451-20.1018-26.65753-38.11L.09517,87.174C-1.75966,55.22052,23.7222,22.48472,57.0075,14.05762c12.9326-3.2741,25.1432-2.4017,35.345,1.7678a85.89713,85.89713,0,0,1-9.1854,18.1779c-7.3758,10.95-17.9598,17.8546-23.6377,15.4196-5.6773-2.4352-4.3049-13.2852,3.0693-24.2374a51.96515,51.96515,0,0,1,5.5378-6.8748A66.161,66.161,0,0,0,60.8309,19.72782Zm2.427,14.2413c-2.3903,5.0327-1.4397,9.1654,2.1218,9.2294,3.5625.0642,8.3867-3.9638,10.7763-8.9968,2.3904-5.0318,1.4406-9.1646-2.121-9.2295C70.4735,24.908,65.6484,28.93572,63.2579,33.96912ZM70.05.10972c27.9058-1.6964,50.0434,16.4271,51.6709,44.4816,1.8516,31.9238-23.576,64.6266-56.8181,73.0951-11.4971,2.899-22.2704,2.5695-31.6244-.3708-.673-12.5952,1.7747-25.72962,7.172-34.8935,8.8046-14.9444,22.1223-13.67412,29.7461,2.8381a60.81949,60.81949,0,0,1,5.0043,21.417,77.58,77.58,0,0,0,7.7198-4.7294c-8.2426-19.9969-11.9208-43.6706,17.6049-85.261-8.5859-6.8703-21.7845-10.2146-38.2662-8.0851Q65.90445,4.31862,70.05.10972Zm156.53239,90.4934c0-20.5132,15.9514-35.9797,37.1135-36.0107a31.01584,31.01584,0,0,1,11.7175,2.012l-2.616,13.73858s-3.2843-2.21648-9.3126-2.21648c-12.0391,0-19.1993,10.4838-19.1993,20.6047,0,8.5793,5.7249,11.6461,11.0721,11.6461a31.03724,31.03724,0,0,0,14.142-3.6636l-2.69359,14.1461s-5.66241,3.0354-16.221,3.0354C235.99289,113.89522,226.58239,104.77172,226.58239,90.60312Zm260.86849,0c0-20.5132,15.9514-35.9797,37.1135-36.0107a31.01588,31.01588,0,0,1,11.7175,2.012l-2.616,13.73858s-3.2843-2.21648-9.3126-2.21648c-12.0391,0-19.19929,10.4838-19.19929,20.6047,0,8.5793,5.72489,11.6461,11.07209,11.6461a31.03724,31.03724,0,0,0,14.142-3.6636l-2.6935,14.1461s-5.6625,3.0354-16.2211,3.0354C496.86139,113.89522,487.45089,104.77172,487.45089,90.60312Zm-154.9648-16.3886c0-11.7671,10.0132-19.7121,25.0594-19.7726,9.9187,0,14.6176,2.94908,14.6176,2.94908l-2.4317,12.75582a28.07965,28.07965,0,0,0-13.0016-3.2135c-4.3812,0-7.2355,1.8276-7.2355,4.9092,0,2.22148,2.1743,4.1849,6.7974,6.43448,6.0126,3.021,12.8247,7.47742,12.8247,15.52852a17.7436,17.7436,0,0,1-5.1969,13.0963c-4.592,4.5625-12.0532,7.054-21.02649,6.9788-11.87671-.1832-17.39661-4.4437-17.39661-4.4437l2.4485-12.8433s8.043,4.9461,16.5797,4.9461c4.1849,0,7.0083-1.9339,7.0083-5.0302,0-2.8086-1.9781-4.77352-7.0393-7.2502C336.48809,85.272,332.48609,80.19612,332.48609,74.21452Zm129.9417,38.5332.521-2.6582c.5718-2.7852,2.8846-6.1173,3.1265-6.6617a1.12509,1.12509,0,0,0-.5591-1.3897,1.07587,1.07587,0,0,0-1.4345.4988,12.77078,12.77078,0,0,1-3.6252,6.6469,19.10716,19.10716,0,0,1-12.9604,4.8487c-11.2382,0-16.31409-9.9558-16.31409-19.954-.01491-11.3304,4.44069-22.5533,11.90349-30.0144a32.2621,32.2621,0,0,1,23.3224-9.5617c6.8579.0147,11.9329,2.0091,15.1053,5.8607,4.6975,5.7102,4.3199,14.2584,3.142,20.4821l-6.099,31.9025ZM468.53029,82.22c.7082-3.73048,2.6729-14.89438-5.0774-14.89438-8.895,0-15.4061,12.6138-15.4061,23.73038,0,2.68912.6194,9.21512,6.8268,9.21512C461.15759,100.27112,466.47389,93.09612,468.53029,82.22ZM201.57589,112.74772l.521-2.6582c.5718-2.7852,2.8846-6.1173,3.1265-6.6617a1.125,1.125,0,0,0-.559-1.3897,1.076,1.076,0,0,0-1.4346.4988,12.77029,12.77029,0,0,1-3.6251,6.6469,19.10753,19.10753,0,0,1-12.9604,4.8487c-11.2383,0-16.3142-9.9558-16.3142-19.954-.0149-11.3304,4.4407-22.5533,11.9035-30.0144a32.26216,32.26216,0,0,1,23.3225-9.5617c6.8578.0147,11.93291,2.0091,15.1053,5.8607,4.6975,5.7102,4.3199,14.2584,3.142,20.4821l-6.0991,31.9025ZM207.67839,82.22c.7082-3.73048,2.6729-14.89438-5.07739-14.89438-8.895,0-15.406,12.6138-15.406,23.73038,0,2.68912.6194,9.21512,6.8267,9.21512C200.30569,100.27112,205.62209,93.09612,207.67839,82.22Zm339.16539,6.97862c.3614.4675,2.4054,2.3425,2.8854,4.2751a9.73542,9.73542,0,0,0,1.329,3.00628c2.1906,2.77912,6.0731,4.27492,10.8612,4.27492a38.64226,38.64226,0,0,0,19.8671-5.6018l-2.7148,14.2223c-8.0891,4.1128-17.5299,4.5509-21.2161,4.5509-15.7233,0-24.7113-8.746-24.7113-24.0017a37.67607,37.67607,0,0,1,8.867-24.2142A31.553,31.553,0,0,1,566.345,54.51712c11.90269,0,19.833,6.8872,19.833,17.14388a15.59337,15.59337,0,0,1-4.57591,11.60192c-5.1216,4.9992-14.3662,7.49208-28.2324,7.58208-3.3382-.01468-4.0891-1.69418-4.682-2.80858a1.09762,1.09762,0,0,0-1.58569-.2582A1.0569,1.0569,0,0,0,546.84379,89.19862Zm23.4737-17.5213c0-2.9458-2.4311-4.7898-6.0717-4.7898-5.6349,0-9.6827,3.5507-11.8423,7.734-1.5562,3.0064-2.1017,3.3069-3.5344,4.21448a1.03088,1.03088,0,0,0-.1814,1.55632,1.005,1.005,0,0,0,1.5548.0605c1.1651-1.3885,1.4353-1.9029,5.8621-2.0844C563.18789,78.068,570.31749,76.97712,570.31749,71.67732Zm22.9454,28.669a7.21613,7.21613,0,0,0-7.0246,6.4655,5.60679,5.60679,0,0,0,5.6956,6.2678,7.22916,7.22916,0,0,0,7.0393-6.4493A5.63935,5.63935,0,0,0,593.26289,100.34632Zm-1.329,13.7305a6.609,6.609,0,0,1-6.6911-7.3712,8.2133,8.2133,0,0,1,8.0201-7.3565,6.61777,6.61777,0,0,1,6.7075,7.3565A8.2423,8.2423,0,0,1,591.93389,114.07682Zm3.0884-3.1049H593.753l-1.10951-3.28392-1.5712.02952-.6094,3.2544h-1.0927l1.6123-8.646h1.8881a5.037,5.037,0,0,1,1.8572.1962,2.03464,2.03464,0,0,1,1.4663,2.0091,3.05976,3.05976,0,0,1-2.3573,2.9754Zm-1.3669-7.5441c-.2119-.0212-1.8002-.0106-1.8002-.0106l-.6013,3.2426s1.571-.0149,1.7818-.0295a2.0076,2.0076,0,0,0,2.0849-1.9062C595.12059,103.78742,594.286,103.49112,593.65539,103.42782Z"/></svg>
