<?xml version="1.0" encoding="utf-8"?>
<!-- Generator: Adobe Illustrator 19.0.1, SVG Export Plug-In . SVG Version: 6.00 Build 0)  -->
<svg version="1.1" id="Rackspace" xmlns="http://www.w3.org/2000/svg" xmlns:xlink="http://www.w3.org/1999/xlink" x="0px" y="0px"
	 viewBox="186 -44 400 117" style="enable-background:new 186 -44 400 117;" xml:space="preserve">
<style type="text/css">
	.st0{fill:#FFFFFF;}
</style>
<path class="st0" d="M511.5,15.9c0-13.6,10.6-23.8,24.6-23.9c2.8,0,5.7,0.5,7.7,1.3l0,0l-1.7,9.1H542c-1.7-1-3.7-1.4-6.1-1.4
	c-8,0-12.7,6.9-12.7,13.6c0,5.7,3.8,7.7,7.3,7.7c3.2,0,5.8-0.7,9.3-2.4l0.1-0.1l-1.8,9.4l0,0c-2.6,1.2-6.6,2-10.7,2
	C517.7,31.3,511.5,25.3,511.5,15.9z M494.9,30.5l0.4-1.8c0.3-1.5,1.5-3.6,2-4.3l0.1-0.1c0.2-0.4-0.1-0.8-0.4-0.9
	c-0.4-0.1-0.8,0-1,0.3v0.2c-0.2,0.8-0.6,2.7-2.4,4.2c-2.2,2-5.2,3.2-8.6,3.2c-7.4,0-10.8-6.6-10.8-13.2c0-7.5,2.9-14.9,7.9-19.9
	c4.1-4.1,9.5-6.3,15.4-6.3c4.5,0,7.9,1.3,10,3.9c3.1,3.8,2.9,9.4,2.1,13.6l-4,21.1L494.9,30.5L494.9,30.5z M495.3,0.5
	c-1.5,0-3.1,0.8-4.6,2.2c-3,3-5.3,8.7-5.2,13.2c0,3.9,1.5,6.4,4,6.4c4.1,0,7.6-4.3,8.8-10.5c0.3-1.4,0.5-2.8,0.7-4.1
	c0.2-1.2,0.3-2.4,0.3-3.1C499.2,1.9,497.8,0.5,495.3,0.5z M550.8,14.9l0.1,0.1c1,0.9,1.7,2.3,1.8,2.7c0.2,0.7,0.5,1.4,0.9,2
	c1.5,1.8,4,2.8,7.2,2.8c4.6,0,8.7-1.1,13-3.6l0.1-0.1l-1.8,9.4c-5.4,2.7-11.6,3-14,3c-10.4,0-16.4-5.8-16.4-15.9
	c0-5.8,2.1-11.7,5.9-16c4.1-4.8,9.8-7.4,16.1-7.4c7.9,0,13.1,4.6,13.1,11.4c0,3.1-1,5.7-3,7.7c-3.4,3.3-9.5,5-18.7,5
	c-2.2,0-2.7-1.1-3.1-1.9l-0.1-0.1c-0.2-0.3-0.7-0.2-1-0.1C550.7,14.2,550.6,14.6,550.8,14.9z M565.4,5.6c0.6-0.6,0.9-1.4,0.9-2.3
	c0-1.9-1.6-3.2-4-3.2c-3.7,0-6.4,2.3-7.8,5.1c-1,2-1.4,2.2-2.3,2.8l-0.1,0.1c-0.3,0.2-0.2,0.7,0,1c0.2,0.2,0.6,0.4,0.9,0.1l0.1-0.1
	c0.8-0.9,1-1.3,3.9-1.4C561.4,7.6,564.1,6.9,565.4,5.6z M452.4-4.6c2.5-2.2,5.7-3.4,8.9-3.4c7.4,0,12.2,5.6,12.2,14.4
	c0,9.2-4.4,18.6-12.3,22.8c-6.2,3.3-11.8,2.6-14.5,0.4c-0.7-0.5-0.8-1.9-0.9-2.4v-0.1c-0.1-0.4-0.6-0.5-0.9-0.4s-0.6,0.5-0.5,0.8
	l0.1,0.1c0.5,0.9,0.9,1.6,0.8,2.4l-2.4,12.7h-11.2l9.5-50.1h9.9l-0.3,1.8c-0.5,2.7-1.3,3.8-1.9,4.4l-0.1,0.1c-0.2,0.3,0,0.7,0.3,0.9
	c0.3,0.1,0.8,0.2,1-0.2v-0.1C450.2-1.4,450.8-3.3,452.4-4.6z M448.2,13c-0.5,2.5-1.8,9.9,3.4,9.9c5.9,0,10.2-8.4,10.2-15.7
	c0-1.8-0.4-6.1-4.5-6.1C453.1,1.1,449.6,5.8,448.2,13z M322.2,30.5l0.4-1.8c0.3-1.5,1.5-3.6,2-4.3l0.1-0.1c0.2-0.4-0.1-0.8-0.4-0.9
	c-0.4-0.1-0.8,0-0.9,0.3l-0.1,0.2c-0.2,0.8-0.6,2.7-2.4,4.2c-2.2,2-5.2,3.2-8.6,3.2c-7.4,0-10.8-6.6-10.8-13.2
	c0-7.5,2.9-14.9,7.9-19.9c4.1-4.1,9.5-6.3,15.4-6.3c4.5,0,7.9,1.3,10,3.9c3.1,3.8,2.9,9.4,2.1,13.6l-4,21.1L322.2,30.5L322.2,30.5z
	 M322.6,0.5c-1.5,0-3.1,0.8-4.6,2.2c-3,3-5.3,8.7-5.2,13.2c0,3.9,1.5,6.4,4,6.4c4.1,0,7.6-4.3,8.8-10.5c0.3-1.4,0.5-2.8,0.7-4.1
	c0.2-1.2,0.3-2.4,0.3-3.1C326.5,1.9,325.1,0.5,322.6,0.5z M338.7,15.9c0-13.6,10.6-23.8,24.6-23.9c2.8,0,5.7,0.5,7.7,1.3
	c0,0,0,0,0.1,0l-1.7,9.1h-0.1c-1.7-1-3.7-1.4-6.1-1.4c-8,0-12.7,6.9-12.7,13.6c0,5.7,3.8,7.7,7.3,7.7c3.2,0,5.8-0.7,9.3-2.4l0.1-0.1
	l-1.8,9.4l0,0c-2.6,1.2-6.6,2-10.7,2C345,31.3,338.7,25.3,338.7,15.9z M408.9,5c0-7.8,6.6-13,16.6-13.1c4.6,0,8,1,9.6,1.9l0,0
	l-1.6,8.5h-0.1c-1.9-1-5.1-2.1-8.5-2.1c-2.9,0-4.8,1.2-4.8,3.2c0,1.5,1.4,2.8,4.5,4.3c4,2,8.5,5,8.5,10.3c0,3.5-1.2,6.4-3.4,8.7
	c-3,3-8,4.7-13.9,4.6c-4.6-0.1-9.2-1.3-11.5-2.9l0,0l1.6-8.5h0.1c2.5,1.6,7.3,3.2,10.9,3.2c2.8,0,4.6-1.3,4.6-3.3
	c0-1.9-1.3-3.2-4.7-4.8C411.5,12.3,408.9,9,408.9,5z M294.2-3.7c2.6-2.9,5.7-4.4,9.1-4.4c0.7,0,1.5,0.1,2.1,0.2l-2.2,11
	c-0.4-0.1-1-0.2-1.8-0.2c-7.6,0-10.6,7.4-11.7,13.6l-2.6,14.4h-11.2l7.3-38.2h9.8l-0.5,2.6c-0.5,2.4-1.2,3.9-1.7,4.5l-0.1,0.1
	c-0.2,0.4,0.1,0.7,0.4,0.9c0.3,0.1,0.8,0.1,0.9-0.3l0.1-0.1C292.3-0.3,292.7-2,294.2-3.7z M581.5,22.3c-2.4,0-4.4,1.9-4.6,4.3
	c-0.2,2.3,1.5,4.1,3.8,4.1c2.4,0,4.5-1.9,4.7-4.3C585.5,24.2,583.8,22.3,581.5,22.3z M580.7,31.4c-2.7,0-4.7-2.2-4.4-4.9
	c0.2-2.7,2.6-4.9,5.3-4.9c2.7,0,4.7,2.2,4.4,4.9S583.4,31.4,580.7,31.4z M582.7,29.4h-0.8l-0.7-2.2h-0.5l0,0h-0.5l-0.4,2.2H579
	l1.1-5.7h1.2c0.3,0,0.5,0,0.7,0s0.4,0.1,0.5,0.1c0.6,0.2,1,0.7,1,1.3c0,0.1,0,0.2,0,0.3c-0.1,0.8-0.6,1.4-1.5,1.6L582.7,29.4z
	 M581.8,24.4c-0.1,0-1.2,0-1.2,0l-0.4,2.2c0,0,1,0,1.2,0s0.3,0,0.4-0.1c0.5-0.1,0.9-0.5,1-1c0.1-0.5-0.1-0.8-0.6-1
	C582.1,24.4,582,24.4,581.8,24.4z M389.3-20.5l-5.8,30.4l14.9-17.2h12.2l-15.4,17.4l9.4,20.4h-12l-9.1-20.2l-3.8,20.2h-11.2l9.7-51
	L389.3-20.5L389.3-20.5z M229-31.1c-16.5,20.3-23.5,46.6-22.6,70c-9.8-3.9-16.9-13.3-17.7-25.2v-0.1c-1.2-21.2,15.7-42.8,37.7-48.4
	c8.6-2.2,16.7-1.6,23.4,1.2c-1.4,4-3.8,8.6-6.1,12c-4.9,7.2-11.9,11.8-15.7,10.2c-3.8-1.6-2.8-8.8,2-16.1c1.1-1.7,2.4-3.2,3.7-4.5
	C232.2-31.8,230.6-31.5,229-31.1z M230.6-21.6c-1.6,3.3-1,6.1,1.4,6.1s5.5-2.6,7.1-6c1.6-3.3,1-6.1-1.4-6.1
	C235.4-27.6,232.2-25,230.6-21.6z M235.1-44c18.5-1.1,33.1,10.9,34.2,29.5c1.2,21.1-15.6,42.8-37.6,48.4c-7.6,1.9-14.7,1.7-20.9-0.2
	c-0.5-8.3,1.2-17,4.8-23.1c5.8-9.9,14.6-9.1,19.7,1.9c1.9,4.1,3,9.1,3.3,14.2c1.8-0.9,3.5-2,5.1-3.1c-5.5-13.2-7.9-28.9,11.7-56.5
	c-5.7-4.5-14.4-6.8-25.3-5.3C231.5-40.3,233.3-42.2,235.1-44z M192.1,68.4L192.1,68.4l0.4-2h-0.1c-0.7,0.3-1.3,0.4-2,0.4
	c-0.8,0-1.9-0.2-1.9-1.4c0-0.3,0-0.8,0-1l1.5-7.9h4.3l0.4-1.9h-4.3l0.8-4.2h-2.1l-0.8,4.2h-1.9l-0.4,1.9h1.9l-1.5,8
	c-0.1,0.5-0.1,1-0.1,1.5c0.1,1.7,1.5,2.8,3.6,2.8C190.8,68.8,191.4,68.7,192.1,68.4z M198.9,60.7c0.5-2.6,2.4-4.4,4.6-4.4
	c1.9,0,3.1,1.1,3.3,2.8c0,0.5,0,1.1-0.1,1.5l-1.5,7.9h2.1l1.4-7.7c0.2-0.9,0.2-1.6,0.2-2.1c-0.2-2.6-2.1-4.3-4.8-4.3
	c-2.2,0-3.5,1.2-4.5,2.4l1.5-7.8H199l-3.7,19.6h2.2L198.9,60.7z M287.7,68.6l1.5-7.7v-0.1c0.1-0.8,0.3-1.7,0.2-2.4
	c-0.2-2.6-2-4.3-4.6-4.3c-2.1,0-3.8,1-5,2.8c-0.7-1.8-2.2-2.8-4.1-2.8c-1.8,0-2.9,0.9-3.9,2l0.3-1.7h-3.3l-2.7,14.2h3.3l1.5-8
	c0.4-2.1,1.7-3.5,3.4-3.5c1.4,0,2.3,0.8,2.4,2.2c0,0.4,0,0.9-0.1,1.4l-1.5,7.9h3.3l1.5-8c0.4-2.1,1.7-3.5,3.4-3.5
	c1.4,0,2.3,0.8,2.4,2.2c0,0.4,0,0.9-0.1,1.4l-1.5,7.9H287.7L287.7,68.6z M318.4,68.6l1.4-7.7c0.1-0.8,0.3-1.7,0.2-2.5
	c-0.2-2.6-2-4.3-4.6-4.3c-1.8,0-3.1,1-4.1,2l0.3-1.7h-3.3l-2.7,14.2h3.4l1.5-8c0.4-2.1,1.8-3.5,3.5-3.5c1.5,0,2.5,0.8,2.6,2.2
	c0,0.4,0,1-0.1,1.4l-1.5,7.9H318.4L318.4,68.6z M404.4,66.6l-1.9-2.2c-1.2,1.1-2.2,1.6-3.4,1.6c-1.9,0-3.4-1.5-3.6-3.5
	c-0.1-1.5,0.4-3.1,1.4-4.2c0.8-0.9,1.9-1.4,2.9-1.4c1.9,0,2.8,1,3.6,2.1l2.4-1.8c-0.9-1.5-2.8-3.2-6-3.2c-2.1,0-4.2,0.9-5.7,2.5
	s-2.2,3.7-2,6c0.3,3.7,3.2,6.3,7,6.3C401.8,68.9,403.3,67.7,404.4,66.6z M409.7,68.6l3.7-19.6h-3.3l-3.7,19.6H409.7z M438.8,66.9
	l-0.3,1.7h3.3l2.7-14.2h-3.3l-1.5,8c-0.4,2.1-1.8,3.5-3.5,3.5c-1.5,0-2.4-0.8-2.6-2.2c0-0.4,0-1,0.1-1.4l1.5-7.9h-3.3l-1.5,7.7
	c-0.1,0.8-0.3,1.7-0.2,2.5c0.2,2.6,2,4.3,4.7,4.3C436.6,68.9,437.9,67.8,438.8,66.9z M480.7,66.6l-1.4-1.4c-1.3,1.2-2.5,1.8-3.9,1.8
	c-2,0-4.2-1.4-4.4-4.2c-0.1-1.8,0.5-3.5,1.6-4.7c1-1.1,2.3-1.7,3.7-1.7c2.2,0,3.4,1.3,4.1,2.4l1.7-1.1c-0.7-1.2-2.4-3.2-5.8-3.2
	c-2,0-4,0.9-5.5,2.4c-1.5,1.6-2.2,3.8-2,6c0.3,4,3.6,6.1,6.6,6.1C477.4,68.9,479.1,68.1,480.7,66.6z M519,68.6l1.5-7.7
	c0-0.1,0-0.3,0.1-0.4c0.1-0.6,0.2-1.2,0.1-1.7c-0.2-2.6-2-4.3-4.6-4.3c-2.3,0-4.1,1-5.3,3c-0.6-1.9-2.2-3-4.2-3
	c-1.9,0-3.1,0.9-4.3,2.4l0.4-2.1h-2.1L498,68.7h2.1l1.5-7.8c0.5-2.5,2.4-4.4,4.4-4.4c1.8,0,2.9,1.1,3,2.8c0,0.5,0,1.1-0.1,1.5
	l-1.5,7.9h2.2l1.5-7.8c0.5-2.5,2.4-4.4,4.4-4.4c1.8,0,2.9,1.1,3,2.8c0,0.4,0,1.1-0.1,1.5l-1.5,7.9L519,68.6L519,68.6z M565.3,68.6
	l1.4-7.7c0.2-0.9,0.2-1.6,0.2-2.1c-0.2-2.6-2.1-4.3-4.8-4.3c-2.2,0-3.5,1.2-4.5,2.4l0.4-2.1h-2.1l-2.6,13.9h2.1l1.5-7.8
	c0.5-2.6,2.4-4.4,4.6-4.4c1.9,0,3.1,1.1,3.3,2.8c0,0.5,0,1.1-0.1,1.5l-1.5,7.9L565.3,68.6L565.3,68.6z M574.4,69l8.4-14.3h-2.4
	l-6.5,11.4l-2.8-11.4h-2.2l3.6,13.8c-1.1,1.8-2.1,2.5-3.4,2.5c-0.7,0-1.6-0.3-2.1-0.7l-1.1,1.6c1,0.7,2,1,3.1,1
	C571.2,72.9,572.8,71.8,574.4,69z M217.7,68.9c-3.7,0-6.3-2.4-6.6-5.9c-0.2-2.3,0.6-4.6,2.1-6.2c1.4-1.5,3.2-2.3,5.3-2.3
	c3.7,0,5.6,2.7,5.8,5.3c0.1,0.9,0,1.8-0.3,2.6l0,0h-10.8c0,0.2,0,0.3,0,0.5c0.2,2.5,1.9,4.1,4.4,4.1c1.8,0,3-0.7,4.1-1.6l1.2,1.4
	C221.9,67.8,220.3,68.9,217.7,68.9z M213.3,60.7h8.8c0.1-0.3,0.1-0.6,0-1c-0.1-1.7-1.2-3.5-3.7-3.5c-1.4,0-2.7,0.6-3.7,1.6
	C214.1,58.6,213.6,59.6,213.3,60.7z M326,68.9c-2.5,0-4.4-1.6-4.6-3.9c-0.1-1.3,0.3-2.5,1.1-3.4c1.1-1.1,2.7-1.7,4.7-1.7
	c1.4,0,2.8,0.2,4.4,0.7l0.1-0.2c0.1-0.4,0.1-0.7,0.1-1.2c-0.1-1.4-1.2-2.1-3.2-2.1c-1.3,0-2.5,0.3-3.8,0.8l-0.8-2.7
	c1.6-0.6,3.2-0.9,5-0.9c3.7,0,5.8,1.6,6,4.4c0.1,0.7,0,1.3-0.1,2.1l-1.5,7.9h-3.2l0.3-1.7C329.2,68.2,327.8,68.9,326,68.9z
	 M327.9,62c-1.1,0-2,0.3-2.6,0.9c-0.4,0.4-0.6,1-0.5,1.7c0.1,1.1,1,1.9,2.4,1.9c1.9,0,3.6-1.4,4-3.3l0.1-0.6
	C330.6,62.3,329.4,62,327.9,62z M343,72.9c-2.7,0-5.5-0.8-7.4-2.2l1.7-2.3c1.6,1.1,3.5,1.8,5.4,1.8c1.4,0,2.6-0.4,3.3-1.2
	c0.6-0.6,1-1.5,1.2-2.8l0.1-0.7c-1.5,1.4-2.8,2-4.6,2c-2.7,0-5.6-1.8-5.9-5.1c-0.2-2.2,0.5-4.3,2-5.9c1.4-1.5,3.2-2.3,5.2-2.3
	c2.7,0,4,1.4,4.8,2.7l0.4-2.4h3.3l-2.2,11.7c-0.5,2.5-1,3.7-2,4.8C347.2,72.3,345.4,72.9,343,72.9z M344.6,56.9
	c-1.2,0-2.3,0.5-3.1,1.4c-0.9,0.9-1.3,2.1-1.2,3.4c0.1,1.8,1.5,3,3.4,3c1.3,0,2.5-0.5,3.3-1.5c0.9-0.9,1.3-2,1.2-3.2
	C348,58.2,346.5,56.9,344.6,56.9z M360.6,68.9c-4,0-6.6-2.4-6.9-6.2c-0.2-2.2,0.6-4.5,2.1-6.2c1.4-1.6,3.4-2.4,5.6-2.4
	c1.7,0,3.2,0.6,4.3,1.6c1,1,1.6,2.4,1.8,3.9c0.1,1-0.1,2-0.4,3c0,0,0,0-0.1,0h-10.2c0.2,2.2,1.6,3.5,3.9,3.5c1.3,0,2.3-0.4,3.5-1.4
	l1.8,2.1C364.5,68.2,362.7,68.9,360.6,68.9z M357,60.4h7.2c0.1-0.2,0.1-0.6,0.1-0.9c-0.1-1.7-1.2-2.7-3-2.7c-1.2,0-2.3,0.5-3.1,1.4
	C357.6,58.8,357.2,59.6,357,60.4z M420.9,68.9c-2,0-3.7-0.6-5-1.8c-1.3-1.2-2-2.8-2.2-4.6c-0.2-2.1,0.6-4.3,2-5.8
	c1.4-1.6,3.4-2.5,5.6-2.5c2,0,3.7,0.6,5,1.8c1.3,1.2,2,2.8,2.2,4.7c0.2,2.1-0.6,4.3-2,5.8C425,68,423,68.9,420.9,68.9z M421.3,57
	c-1.1,0-2.1,0.5-3,1.3c-0.9,1-1.5,2.6-1.4,4c0.2,2.3,1.6,3.7,3.8,3.7c1.1,0,2.2-0.5,3-1.3c0.9-1,1.5-2.6,1.4-4
	C425,58.4,423.5,57,421.3,57z M451.3,68.9c-1.6,0-3-0.6-4.1-1.6c-1.1-1.1-1.8-2.6-1.9-4.4c-0.2-2.5,0.5-4.7,2.1-6.4
	c1.4-1.5,3.2-2.3,5.1-2.3c2.1,0,3.8,0.9,4.9,2.7l1.5-7.8h3.3l-3.7,19.6h-3.3l0.3-1.8C454.3,68.2,452.9,68.9,451.3,68.9z M453.1,57
	c-1.1,0-2.2,0.5-3,1.3c-1,1.1-1.5,2.6-1.4,4.2c0.2,2.1,1.6,3.4,3.6,3.4c1.2,0,2.3-0.5,3.1-1.5c1-1.1,1.5-2.6,1.4-4.1
	C456.8,58.4,455.2,57,453.1,57z M489.5,68.9c-3.7,0-6.5-2.6-6.8-6.2c-0.2-2.1,0.6-4.3,2-5.8c1.5-1.6,3.4-2.4,5.5-2.4
	c3.7,0,6.5,2.6,6.8,6.2c0.2,2.1-0.6,4.2-2,5.9C493.6,68,491.6,68.9,489.5,68.9z M490.2,56.3c-1.4,0-2.7,0.6-3.8,1.7
	c-1.1,1.2-1.7,2.9-1.6,4.6c0.2,2.7,2,4.4,4.6,4.4c1.4,0,2.7-0.6,3.8-1.7c1.1-1.2,1.7-2.9,1.6-4.6C494.6,58,492.9,56.3,490.2,56.3z
	 M521.1,72.8l3.4-18.1h2.1l-0.4,2.2c1.4-1.7,3-2.5,4.9-2.5c3.2,0,5.7,2.4,6,5.9c0.2,2.4-0.6,4.7-2.1,6.4c-1.3,1.5-3.1,2.3-5,2.3
	c-3,0-4.6-1.8-5.4-3.3l-1.4,7.3L521.1,72.8L521.1,72.8z M530.7,56.3c-1.4,0-2.9,0.7-3.9,1.8c-1.2,1.3-1.8,3-1.7,4.6
	c0.2,2.5,2.1,4.2,4.5,4.2c1.4,0,2.7-0.6,3.6-1.6c1.1-1.3,1.7-3.1,1.6-4.9C534.7,58,533,56.3,530.7,56.3z M549.7,68.6h-2.1l0.4-2
	c-1.3,1.5-2.9,2.3-4.9,2.3c-2.1,0-4.5-1.2-4.7-3.9c-0.1-1.3,0.3-2.4,1.1-3.3c1-1.1,2.7-1.7,4.7-1.7c1.5,0,3.1,0.2,4.9,0.7v-0.3
	c0.1-0.4,0.1-0.9,0.1-1.3c-0.1-1.8-1.5-2.8-3.9-2.8c-1.6,0-2.8,0.4-3.8,0.7l-0.5-1.8c1.5-0.6,2.9-0.8,4.5-0.8c3.5,0,5.6,1.6,5.8,4.3
	c0,0.6,0,1.2-0.1,1.9L549.7,68.6z M544.4,61.6c-1.4,0-2.5,0.4-3.1,1.1c-0.5,0.5-0.8,1.2-0.7,2c0.1,1.5,1.3,2.4,3.1,2.4
	c2.4,0,4.6-1.8,5-4.1l0.2-0.9C547.5,61.8,545.9,61.6,544.4,61.6z M242.1,68.6l0.9-4.7h-4.7l-0.9,4.7h-2.1l0.9-4.7h-3.5l0.4-2.1h3.5
	l1-5.5h-3.5l0.4-2.1h3.5l0.9-4.7h2.1l-0.9,4.7h4.7l0.9-4.7h2.1l-0.9,4.7h3.4l-0.4,2.1h-3.4l-1,5.5h3.4l-0.4,2.1h-3.4l-0.9,4.7H242.1
	z M238.7,61.8h4.7l1-5.5h-4.7L238.7,61.8z M374.7,68.9c-1.6,0-3-0.6-4.1-1.6c-1.1-1.1-1.8-2.6-1.9-4.4c-0.2-2.5,0.6-4.7,2.1-6.4
	c1.4-1.5,3.2-2.3,5.1-2.3c2.1,0,3.8,0.9,4.9,2.7l1.5-7.8h3.3L382,68.6h-3.3l0.3-1.8C377.7,68.2,376.3,68.9,374.7,68.9z M376.5,57
	c-1.1,0-2.2,0.5-3,1.3c-1,1.1-1.5,2.6-1.4,4.2c0.2,2.1,1.6,3.4,3.6,3.4c1.2,0,2.3-0.5,3.1-1.5c1-1.1,1.5-2.6,1.4-4.1
	C380.2,58.4,378.6,57,376.5,57z M255.5,68.6l3.7-19.6h-1.7l-4.9,1.6l0.2,1.9l3.7-1.1l-3.2,17.1L255.5,68.6L255.5,68.6z M295.4,68.9
	c-2.5,0-4.4-1.6-4.6-3.9c-0.1-1.3,0.3-2.5,1.1-3.4c1.1-1.1,2.7-1.7,4.7-1.7c1.4,0,2.8,0.2,4.4,0.7l0.1-0.2c0.1-0.4,0.1-0.7,0.1-1.2
	c-0.1-1.4-1.2-2.1-3.2-2.1c-1.3,0-2.5,0.3-3.8,0.8l-0.8-2.7c1.6-0.6,3.2-0.9,5-0.9c3.7,0,5.8,1.6,6,4.4c0.1,0.7,0,1.3-0.1,2.1
	l-1.5,7.9h-3.3l0.3-1.7C298.6,68.2,297.1,68.9,295.4,68.9z M297.2,62c-1.1,0-2,0.3-2.6,0.9c-0.4,0.4-0.6,1-0.5,1.7
	c0.1,1.1,1,1.9,2.4,1.9c1.9,0,3.7-1.4,4-3.3l0.1-0.6C300,62.3,298.7,62,297.2,62z"/>
</svg>
