<svg xmlns="http://www.w3.org/2000/svg" width="400" height="117" viewBox="0 0 400 117"><path d="M265.4476,54.5834a13.7681,13.7681,0,0,1,8.9312-3.434c7.4522,0,12.2856,5.65,12.2856,14.4608,0,9.2341-4.43,18.71-12.4262,22.9692-6.2033,3.3131-11.843,2.5686-14.6418.3933-.7693-.5978-.8143-2.1861-.9362-2.5686a.7134.7134,0,0,0-.925-.4027l-.0014.0006a.7223.7223,0,0,0-.4111.9352q.0081.0209.0176.0413a3.734,3.734,0,0,1,.7553,2.3867L255.68,102.1641H244.4073l9.5963-50.471h9.9258l-.3355,1.8332a8.9818,8.9818,0,0,1-1.954,4.5718.6723.6723,0,0,0,.3029.8861.7512.7512,0,0,0,.9764-.1809A10.02,10.02,0,0,1,265.4476,54.5834Zm-4.14,17.7838c-.4721,2.4869-1.7819,9.9293,3.3849,9.9293,5.93,0,10.2705-8.409,10.2705-15.82,0-1.7927-.413-6.1433-4.5511-6.1433C266.2225,60.3334,262.6784,65.1166,261.3075,72.3672ZM106.25,55.53a12.2387,12.2387,0,0,1,9.1637-4.4214,12.6411,12.6411,0,0,1,2.0848.1711l-2.1856,11.0366a9.154,9.154,0,0,0-1.7622-.171c-7.6528,0-10.6335,7.4717-11.8017,13.6651L99.0329,90.382H87.7589L95.07,51.9548h9.9213l-.5035,2.6689a11.8747,11.8747,0,0,1-1.7824,4.7027.7406.7406,0,0,0,1.33.6146A10.6,10.6,0,0,1,106.25,55.53Zm95.6891-16.938-5.8236,30.6153,14.9906-17.2824h12.3078L207.8874,69.417l9.45,20.4979-12.1058.0039-9.1633-20.3341-3.8678,20.3341h-11.192l9.763-51.3264ZM40.5531,27.9875C23.9149,48.3813,16.8485,74.8751,17.8424,98.498,8.0108,94.57.82,85.0971.0711,73.0918l-.0077-.1411c-1.2365-21.3019,15.751-43.1253,37.9408-48.7433,8.6216-2.1827,16.7618-1.6011,23.5629,1.1785a57.2636,57.2636,0,0,1-6.1235,12.1184c-4.9171,7.3-11.973,11.9028-15.7582,10.28s-2.87-8.8566,2.0462-16.1579a34.6428,34.6428,0,0,1,3.6918-4.5831A44.1064,44.1064,0,0,0,40.5531,27.9875Zm1.618,9.494c-1.5935,3.3551-.96,6.11,1.4145,6.1528s5.591-2.6425,7.1841-5.9977.96-6.11-1.414-6.1529S43.7647,34.126,42.1711,37.4815Zm4.528-22.5725C65.3026,13.7781,80.0607,25.86,81.1457,44.5628c1.2344,21.2821-15.717,43.0836-37.878,48.7291a38.5489,38.5489,0,0,1-21.0825-.2472c-.4487-8.3966,1.1831-17.1527,4.7812-23.2619,5.87-9.9627,14.7479-9.1159,19.83,1.892a40.5456,40.5456,0,0,1,3.3361,14.2777A51.7191,51.7191,0,0,0,55.2793,82.8c-5.495-13.331-7.947-29.1132,11.7364-56.84-5.7238-4.58-14.5227-6.81-25.51-5.39Q43.9354,17.7149,46.6991,14.909ZM151.0519,75.2367c0-13.6752,10.6341-23.986,24.7418-24.0067a20.6768,20.6768,0,0,1,7.8115,1.3413l-1.744,9.1589a11.7753,11.7753,0,0,0-6.2083-1.4776c-8.0259,0-12.7993,6.9891-12.7993,13.7362,0,5.7194,3.8165,7.7639,7.3813,7.7639a20.691,20.691,0,0,0,9.4278-2.4423l-1.7957,9.4305s-3.7749,2.0236-10.8138,2.0236C157.3255,90.7645,151.0519,84.6823,151.0519,75.2367Zm173.9089,0c0-13.6752,10.634-23.986,24.7418-24.0067a20.6769,20.6769,0,0,1,7.8115,1.3413L355.77,61.73a11.7753,11.7753,0,0,0-6.2083-1.4776c-8.0259,0-12.7993,6.9891-12.7993,13.7362,0,5.7194,3.8165,7.7639,7.3812,7.7639a20.691,20.691,0,0,0,9.4278-2.4423l-1.7956,9.4305s-3.7749,2.0236-10.8139,2.0236C331.2344,90.7645,324.9608,84.6823,324.9608,75.2367ZM221.653,64.3112c0-7.8446,6.6753-13.1411,16.7059-13.1815,6.6123,0,9.7449,1.966,9.7449,1.966l-1.6211,8.5037a18.7194,18.7194,0,0,0-8.6676-2.1423c-2.9207,0-4.8236,1.2184-4.8236,3.2727,0,1.481,1.4495,2.79,4.5315,4.29,4.0083,2.014,8.55,4.9848,8.55,10.3521a11.8288,11.8288,0,0,1-3.4645,8.7307c-3.0613,3.0416-8.0353,4.7026-14.0174,4.6524-7.9176-.1221-11.5975-2.9624-11.5975-2.9624l1.6323-8.562s5.3619,3.2973,11.0529,3.2973c2.79,0,4.6721-1.2892,4.6721-3.3534,0-1.8724-1.3187-3.1823-4.6928-4.8334C224.321,71.6827,221.653,68.2989,221.653,64.3112ZM308.2791,90l.3473-1.7721a17.6085,17.6085,0,0,1,2.0843-4.441.75.75,0,0,0-.3727-.9264.7172.7172,0,0,0-.9563.3325,8.5137,8.5137,0,0,1-2.4168,4.4312,12.7379,12.7379,0,0,1-8.64,3.2324c-7.492,0-10.8758-6.6371-10.8758-13.3024a28.6919,28.6919,0,0,1,7.9355-20.0092,21.5077,21.5077,0,0,1,15.548-6.3743c4.5718.01,7.9551,1.3394,10.07,3.9071,3.1316,3.8067,2.88,9.5054,2.0946,13.6545L319.0311,90Zm4.0683-20.3514c.4721-2.4869,1.7819-9.9294-3.3849-9.9294-5.93,0-10.2705,8.409-10.2705,15.82,0,1.7927.4129,6.1433,4.5511,6.1433C307.4323,81.6819,310.9764,76.8987,312.3474,69.6481ZM134.3813,90l.3473-1.7721a17.6078,17.6078,0,0,1,2.0843-4.441.75.75,0,0,0-.3727-.9264.7173.7173,0,0,0-.9564.3325,8.5134,8.5134,0,0,1-2.4167,4.4312,12.7381,12.7381,0,0,1-8.64,3.2324c-7.492,0-10.8759-6.6371-10.8759-13.3024a28.692,28.692,0,0,1,7.9355-20.0092,21.5077,21.5077,0,0,1,15.548-6.3743c4.5718.01,7.9551,1.3394,10.07,3.9071,3.1316,3.8067,2.88,9.5054,2.0946,13.6545L145.1333,90ZM138.45,69.6481c.4721-2.4869,1.7819-9.9294-3.3849-9.9294-5.93,0-10.27,8.409-10.27,15.82,0,1.7927.4129,6.1433,4.551,6.1433C133.5345,81.6819,137.0787,76.8987,138.45,69.6481ZM364.5553,74.3a8.0075,8.0075,0,0,1,1.9235,2.85,6.49,6.49,0,0,0,.886,2.0041c1.46,1.8527,4.0487,2.85,7.2407,2.85A25.761,25.761,0,0,0,387.85,78.27l-1.81,9.4813c-5.3926,2.7418-11.6864,3.0339-14.1438,3.0339-10.482,0-16.4739-5.8306-16.4739-16.0008a25.1168,25.1168,0,0,1,5.9112-16.1425A21.0349,21.0349,0,0,1,377.5559,51.18c7.935,0,13.2217,4.5914,13.2217,11.429a10.3954,10.3954,0,0,1-3.0506,7.7345c-3.4143,3.3327-9.5773,4.9946-18.8212,5.0546a2.971,2.971,0,0,1-3.1213-1.8723.7317.7317,0,0,0-1.0148-.2026q-.0217.0145-.0423.03a.7046.7046,0,0,0-.1721.9469ZM380.2041,62.62c0-1.9638-1.6207-3.1931-4.0477-3.1931a8.896,8.896,0,0,0-7.8947,5.1559c-1.0375,2.0042-1.4011,2.2046-2.3562,2.81a.6873.6873,0,0,0-.1209,1.0375.67.67,0,0,0,1.0365.04c.7767-.9256.9568-1.2686,3.908-1.39,4.7221-.2,9.4751-.9275,9.4751-4.4606Zm15.2966,19.1123a4.8106,4.8106,0,0,0-4.683,4.31,3.7378,3.7378,0,0,0,3.797,4.1785,4.8193,4.8193,0,0,0,4.6928-4.2995,3.7595,3.7595,0,0,0-3.8068-4.1892Zm-.886,9.1535a4.4059,4.4059,0,0,1-4.4606-4.914,5.4754,5.4754,0,0,1,5.3466-4.9042,4.4117,4.4117,0,0,1,4.4716,4.9042,5.4948,5.4948,0,0,1-5.3575,4.914Zm2.0589-2.07h-.8461l-.74-2.1892-1.0475.02-.4062,2.17h-.7285l1.0748-5.7639h1.2587a3.358,3.358,0,0,1,1.2381.1308,1.3564,1.3564,0,0,1,.9775,1.3394,2.04,2.04,0,0,1-1.5715,1.9836Zm-.9112-5.0293c-.1413-.0141-1.2-.0071-1.2-.0071l-.4009,2.1617s1.0473-.01,1.1878-.02a1.3384,1.3384,0,0,0,1.39-1.2708c0-.6245-.5563-.822-.9767-.8642Z" fill="#fff"/></svg>